<?xml version="1.0" encoding="utf-8"?>
<!-- Generator: Adobe Illustrator 25.2.3, SVG Export Plug-In . SVG Version: 6.00 Build 0)  -->
<svg version="1.1" id="Layer_1" xmlns="http://www.w3.org/2000/svg" xmlns:xlink="http://www.w3.org/1999/xlink" x="0px" y="0px"
	 viewBox="0 0 1920 1080" style="enable-background:new 0 0 1920 1080;" xml:space="preserve">
<style type="text/css">
	.st0{fill:#95F9F6;stroke:#29ABE2;stroke-miterlimit:10;}
	.st1{fill:#1B1464;}
	.st2{fill:#2E3192;}
	.st3{fill:#29ABE2;}
	.st4{fill:#A36514;}
	.st5{fill:#054907;}
	.st6{fill:#E1F9FF;}
	.st7{fill:none;stroke:#063F1F;stroke-width:20;stroke-linecap:round;stroke-miterlimit:10;}
	.st8{fill:#01602C;}
	.st9{fill:#8CC63F;}
	.st10{fill:#F7931E;}
	.st11{fill:#754C24;}
	.st12{fill:#8C6239;}
	.st13{fill:#009245;}
	.st14{fill:#FFFDFD;}
	.st15{fill:#FF6498;}
	.st16{fill:none;stroke:#8CC63F;stroke-width:5;stroke-miterlimit:10;}
	.st17{fill:#D9E021;}
	.st18{fill:#ED1C24;}
	.st19{fill:#9E005D;}
	.st20{fill:#D4145A;}
	.st21{fill:#FFFFFF;}
	.st22{fill:#FBB03B;}
	.st23{fill:none;stroke:#29ABE2;stroke-width:4;stroke-linecap:round;stroke-linejoin:round;stroke-miterlimit:10;}
	.st24{fill:none;stroke:#8C6239;stroke-width:10;stroke-miterlimit:10;}
	.st25{fill:#39B54A;}
	.st26{fill:#063F1F;}
	.st27{fill:none;stroke:#39B54A;stroke-width:20;stroke-linecap:round;stroke-miterlimit:10;}
	.st28{fill:#C69C6D;}
	.st29{fill:#42210B;}
	.st30{fill:#FFFF00;}
	.st31{fill:#FFFFFD;}
	.st32{fill:#FFC200;}
	.st33{opacity:0.64;fill:#E0B036;stroke:#FFFF00;stroke-width:0.5;stroke-miterlimit:10;enable-background:new    ;}
	.st34{opacity:0.64;fill:#B74983;stroke:#FF00FF;stroke-width:0.5;stroke-miterlimit:10;enable-background:new    ;}
	.st35{fill:#F15A24;}
	.st36{fill:#C1272D;}
	.st37{fill:#93278F;}
	.st38{fill:#FFAB66;}
	.st39{fill:#00FF00;}
</style>
<rect x="0.3" y="1.5" class="st0" width="1920" height="948.8"/>
<g>
	<path class="st1" d="M1059.7,153.7c0,0.4,0,0.8,0,1.1s0,0.5,0,0.8c0,0.2,0,0.4,0,0.6c-0.2,6.8-1,13.4-2.5,19.8
		c-1.5,6.8-3.7,13.4-6.5,19.7c-3,6.7-6.7,13-10.9,18.9c-0.6,0.9-1.3,1.7-1.9,2.5s-1.3,1.6-2,2.4c-0.8,1-1.7,2-2.5,2.9
		c-0.1,0.1-0.1,0.1-0.1,0.1c-1.8,2-3.6,3.9-5.5,5.8c-4.4,4.3-9.2,8.1-14.3,11.6c-5.4,3.6-11.1,6.7-17.1,9.3
		c-12.5,5.3-26.3,8.3-40.8,8.3c-0.9,0-1.9,0-2.8,0c-0.5,0-1.1,0-1.6-0.1c-9.4-0.4-18.4-2-27-4.7c-0.5-0.1-1-0.3-1.5-0.5
		c-0.6-0.2-1.2-0.4-1.8-0.6c-1.5-0.5-2.9-1.1-4.3-1.6c-10.8-4.4-20.7-10.5-29.4-18c-15.3-13.3-26.6-30.9-32.1-51
		c-1.1-4.1-2-8.2-2.6-12.5c-0.7-4.9-1.1-10-1.1-15.1c0-57.5,46.6-104.2,104.2-104.2c19.7,0,38.2,5.5,53.9,15
		c0.2,0.1,0.4,0.2,0.5,0.3c6.1,3.8,11.8,8.1,17,13c4,3.8,7.7,7.8,11.1,12.2c2.8,3.6,5.3,7.4,7.7,11.4c2.1,3.7,4.1,7.5,5.8,11.5
		c3,7,5.2,14.3,6.6,22c1.1,5.8,1.6,11.8,1.7,18v0.1C1059.7,152.9,1059.7,153.3,1059.7,153.7z"/>
	<g>
		<path class="st2" d="M1036.9,182.9c-1,5.6,2.8,10.9,8.3,11.9l5.4,1c-3,6.7-6.7,13-10.9,18.9l-1.3-0.2c-1.4,0.9-3.1,1.3-4.9,1
			l-40.5-7.1c-3.4-0.6-6.7,1.4-7.8,4.6c0,0.3,0,0.7-0.1,1c-0.1,0.4-0.2,0.7-0.2,1c-0.1,3.4,2.3,6.4,5.7,7l37,6.5
			c-4.4,4.3-9.2,8.1-14.3,11.6l-10.4-1.8c-3.8-0.7-7.4,1.9-8,5.6c-0.3,2,0.2,4,1.4,5.5c-12.5,5.3-26.3,8.3-40.8,8.3
			c-0.9,0-1.9,0-2.8,0l-30.1-5.3c-0.6-0.2-1.2-0.4-1.8-0.6c-12.5-4.4-23.9-11.1-33.7-19.6l1.1,0.2c3.8,0.7,7.4-1.9,8-5.6
			c0.7-3.8-1.9-7.4-5.6-8l-2.3-0.4c-3.8-0.7-6.3-4.2-5.6-8s4.2-6.3,8-5.6l16.9,2.9c3.4,0.6,6.7-1.4,7.8-4.6c0-0.3,0-0.7,0.1-1
			s0.1-0.7,0.3-1c0.1-3.4-2.3-6.4-5.7-7l-17.4-3c-1.8-0.3-3.2-1.3-4.3-2.6l-28.5-5c-1.8-0.3-3.5-1.1-4.8-2.2
			c-1.1-4.1-2-8.2-2.6-12.5c2-3.9,6.4-6.3,10.9-5.5L879,166c5.6,1,10.9-2.8,11.9-8.3c1-5.6-2.8-10.9-8.3-11.9l-3.4-0.6
			c-5.6-1-9.3-6.3-8.3-11.9c1-5.6,6.3-9.3,11.9-8.3l25,4.4c5.1,0.9,9.9-2.1,11.5-6.9c0-0.5,0-1,0.1-1.5s0.2-1,0.4-1.5
			c0.1-5-3.4-9.5-8.5-10.4l-25.7-4.5c-5.6-1-9.3-6.3-8.3-11.9s6.3-9.3,11.9-8.3l44.6,7.8h0.1l7.7,1.3c2.8,0.5,5.4-1.4,5.9-4.1
			c0.5-2.8-1.4-5.4-4.1-5.9l-1.7-0.3c-2.8-0.5-4.6-3.1-4.1-5.9s3.1-4.6,5.9-4.1l12.3,2.1c2.5,0.4,4.9-1.1,5.7-3.4
			c0-0.2,0-0.5,0.1-0.7s0.1-0.5,0.2-0.7c0.1-2.5-1.7-4.7-4.2-5.1L944.4,63c-2.8-0.5-4.6-3.1-4.1-5.9c0.5-2.8,3.1-4.6,5.8-4.1
			l63.3,11.1c0.2,0.1,0.4,0.2,0.5,0.3c6.1,3.8,11.8,8.1,17,13l-9.2-1.6c-2.5-0.4-4.9,1-5.7,3.4c0,0.2,0,0.5-0.1,0.8
			c0,0.2-0.1,0.5-0.2,0.7c-0.1,2.5,1.7,4.7,4.2,5.1l22,3.8c2.8,3.6,5.3,7.4,7.7,11.4c-0.5,0.1-1,0-1.5,0l-19.3-3.4
			c-2.7-0.5-5.4,1.4-5.8,4.1c-0.5,2.7,1.4,5.4,4.1,5.8l13.3,2.3h0.1l14.9,2.6c3,7,5.2,14.3,6.6,22l-23.7-4.1
			c-5.1-0.9-9.9,2.1-11.5,6.9c0,0.5-0.1,1-0.1,1.5c-0.1,0.5-0.2,1-0.4,1.5c-0.1,5,3.4,9.5,8.5,10.4l28.9,5.1c-0.2,7-1,13.8-2.5,20.4
			l-8.4-1.5C1043.2,173.5,1037.9,177.3,1036.9,182.9z"/>
	</g>
	<path class="st3" d="M1059.7,153.7v0.6c0,0.2,0,0.4,0,0.5c0,0.3,0,0.5,0,0.8c0,0.2,0,0.4,0,0.6c-0.2,6.8-1,13.4-2.5,19.8
		c-1.5,6.8-3.7,13.4-6.5,19.7c-3,6.7-6.7,13-10.9,18.9c-0.6,0.9-1.3,1.7-1.9,2.5s-1.3,1.6-2,2.4c-1.1,0.7-2,1.7-2.5,2.9
		c-0.1,0.1-0.1,0.1-0.1,0.1c-1.8,2-3.6,3.9-5.5,5.8c-4.4,4.3-9.2,8.1-14.3,11.6c-5.4,3.6-11.1,6.7-17.1,9.3
		c-12.5,5.3-26.3,8.3-40.8,8.3c-0.9,0-1.9,0-2.8,0c-0.5,0-1.1,0-1.6-0.1c-9.4-0.4-18.4-2-27-4.7c-0.5-0.1-1-0.3-1.5-0.5
		c-0.6-0.2-1.2-0.4-1.8-0.6c-1.5-0.5-2.9-1.1-4.3-1.6c-0.4-1.1-0.5-2.3-0.3-3.5c0.7-3.8,4.3-6.3,8.1-5.7l10.6,1.9
		c3.8,0.7,7.4-1.9,8.1-5.7c0.7-3.8-1.9-7.4-5.7-8.1l-2.3-0.4c-3.8-0.7-6.4-4.3-5.7-8.1s4.3-6.4,8.1-5.7l17,3
		c3.5,0.6,6.8-1.5,7.8-4.7c0-0.3,0-0.7,0.1-1s0.1-0.7,0.2-1c0.1-3.4-2.3-6.5-5.8-7.1l-17.5-3.1c-1.8-0.3-3.3-1.3-4.3-2.6l-28.8-5
		c-5.6-1-9.4-6.4-8.4-12s6.4-9.4,12-8.4l15.7,2.8c5.6,1,11-2.8,12-8.4c1-5.6-2.8-11-8.4-12l-3.4-0.6c-5.6-1-9.4-6.3-8.4-12
		c1-5.6,6.4-9.4,12-8.4l25.2,4.4c5.1,0.9,10-2.1,11.6-6.9c0-0.5,0-1,0.1-1.5s0.2-1,0.4-1.5c0.1-5.1-3.4-9.6-8.6-10.5l-26-4.5
		c-5.6-1-9.4-6.4-8.4-12s6.4-9.4,12-8.4l45,7.9h0.1l7.8,1.4c2.8,0.5,5.4-1.4,5.9-4.2c0.5-2.8-1.4-5.4-4.1-5.9l-1.7-0.3
		c-2.8-0.5-4.6-3.1-4.2-5.9c0.5-2.8,3.1-4.6,5.9-4.1l12.4,2.2c2.5,0.4,4.9-1.1,5.7-3.4c0-0.2,0-0.5,0.1-0.7c0-0.3,0.1-0.5,0.2-0.7
		c0.1-2.5-1.7-4.7-4.2-5.2l-12.8-2.2c-2.8-0.5-4.6-3.1-4.1-5.9c0.5-2.8,3.1-4.6,5.9-4.1l16,2.8c29.7,18.2,49.6,50.7,50.2,88v0.1
		C1059.7,152.9,1059.7,153.3,1059.7,153.7z"/>
</g>
<path class="st4" d="M1194.6,575.4c0-44.5-36.1-80.6-80.6-80.6h-7.8c-13.2,0-25.6,3.2-36.6,8.8V400.3c0-91.4-74.1-165.5-165.5-165.5
	h-16c-91.4,0-165.5,74.1-165.5,165.5v550.1h472.1L1194.6,575.4L1194.6,575.4z"/>
<path class="st5" d="M243.4,564.8c0-44.5-36.1-80.6-80.6-80.6H155c-44.5,0-80.6,36.1-80.6,80.6v385.7h169.1V564.8H243.4z"/>
<path class="st6" d="M131.1,780.4c-15.3,0-27.8,12.4-27.8,27.8c0,15.3,12.4,27.8,27.8,27.8c15.3,0,27.8-12.4,27.8-27.8
	C158.8,792.8,146.4,780.4,131.1,780.4z"/>
<path class="st5" d="M1868.1,573c0-103.2-83.6-186.8-186.8-186.8h-18.1c-103.2,0-186.8,83.6-186.8,186.8v377.4h391.7L1868.1,573
	L1868.1,573z"/>
<path class="st7" d="M1229.8,763.8c-60.7,0-109.9-49.2-109.9-109.9"/>
<rect x="1268.5" y="830.5" class="st8" width="49" height="119.7"/>
<path class="st9" d="M1442.2,644.2v66.1c0,5.8-4.7,10.6-10.6,10.6c-5.8,0-10.6-4.7-10.6-10.6v-13.7c0-5.8-4.7-10.6-10.6-10.6
	c-5.8,0-10.6,4.7-10.6,10.6v13.7c0,5.8-4.7,10.6-10.6,10.6c-5.8,0-10.6-4.7-10.6-10.6v-12.2c0-5.8-4.7-10.6-10.6-10.6
	c-5.8,0-10.6,4.7-10.6,10.6v12.2c0,5.8-4.7,10.6-10.6,10.6c-5.8,0-10.6-4.7-10.6-10.6V693c0-5.8-4.7-10.6-10.6-10.6
	c-5.8,0-10.6,4.7-10.6,10.6v12.8c0,5.8-4.7,10.6-10.6,10.6c-5.8,0-10.6-4.7-10.6-10.6v0.7c0-5.8-4.7-10.6-10.6-10.6
	s-10.6,4.7-10.6,10.6v3.2c0,5.8-4.7,10.6-10.6,10.6c-5.8,0-10.6-4.7-10.6-10.6v-13c0-5.8-4.7-10.6-10.6-10.6
	c-5.8,0-10.6,4.7-10.6,10.6v13.7c0,5.8-4.7,10.6-10.6,10.6c-5.8,0-10.6-4.7-10.6-10.6v-33.9h-0.1v-32.1
	c0-61.2,49.6-110.8,110.8-110.8h10.7C1392.6,533.4,1442.2,583,1442.2,644.2z"/>
<path class="st10" d="M1268.9,160.3c-1.8,2.8-4.7,5.7-8.5,8.1c-3.8,2.4-7.6,3.8-11,4.2l-5.8-12.2l-9.5-20.2
	c-2.1-3.3-1.1-7.7,2.2-9.8c1.7-1.1,3.6-1.3,5.4-0.9c1.8,0.4,3.4,1.5,4.5,3.1l14.1,17.3L1268.9,160.3z"/>
<rect x="497.1" y="658.3" class="st11" width="24.3" height="58.2"/>
<rect x="436.8" y="658.3" class="st11" width="24.3" height="58.2"/>
<ellipse class="st12" cx="476.1" cy="579.7" rx="105.8" ry="105.8"/>
<rect x="468.2" y="658.3" class="st12" width="24.3" height="58.2"/>
<rect x="408.2" y="658.3" class="st12" width="24.3" height="58.2"/>
<rect x="922.5" y="902.7" class="st13" width="16.6" height="47.8"/>
<rect x="963.6" y="902.7" class="st13" width="16.6" height="47.8"/>
<path class="st13" d="M911.8,861.7c3.6-2.8,8.8-2.2,11.6,1.4l0,0c2.8,3.6,2.2,8.8-1.4,11.6L888.4,901c-3.6,2.8-8.8,2.2-11.6-1.4l0,0
	c-2.8-3.6-2.2-8.8,1.4-11.6L911.8,861.7z"/>
<path class="st13" d="M905.1,767.9c2-4.1,7-5.8,11.1-3.8l0,0c4.1,2,5.8,7,3.8,11.1l-18.7,38.2c-2,4.1-7,5.8-11.1,3.8l0,0
	c-4.1-2-5.8-7-3.8-11.1L905.1,767.9z"/>
<path class="st13" d="M915.8,711c3.6,2.8,4.4,7.9,1.6,11.6l0,0c-2.8,3.6-7.9,4.4-11.6,1.6l-34-25.6c-3.6-2.8-4.4-7.9-1.6-11.6l0,0
	c2.8-3.6,7.9-4.4,11.6-1.6L915.8,711z"/>
<path class="st9" d="M1017,871.2c0,29-23.5,52.5-52.5,52.5h-5.3c-29,0-52.5-23.5-52.5-52.5V683.1c0-29,23.5-52.5,52.5-52.5h5.3
	c29,0,52.5,23.5,52.5,52.5V871.2z"/>
<path class="st9" d="M1035.6,894.2c1.8,4.2-0.2,9.1-4.5,10.8l0,0c-4.2,1.8-9.1-0.2-10.8-4.5l-16.3-39.3c-1.8-4.2,0.2-9.1,4.5-10.8
	l0,0c4.2-1.8,9.1,0.2,10.8,4.5L1035.6,894.2z"/>
<path class="st9" d="M1033.5,682c3-3.4,8.2-3.8,11.7-0.7l0,0c3.4,3,3.8,8.2,0.7,11.7l-28.1,31.9c-3,3.4-8.2,3.8-11.7,0.7l0,0
	c-3.4-3-3.8-8.2-0.7-11.7L1033.5,682z"/>
<path class="st14" d="M952.3,703.4c0,9.2-7.4,16.6-16.6,16.6c-9.2,0-16.6-7.4-16.6-16.6c0-9.2,7.4-16.6,16.6-16.6
	C944.8,686.8,952.3,694.3,952.3,703.4z"/>
<path class="st14" d="M993.8,703.4c0,9.2-7.4,16.6-16.6,16.6c-9.2,0-16.6-7.4-16.6-16.6c0-9.2,7.4-16.6,16.6-16.6
	C986.4,686.8,993.8,694.3,993.8,703.4z"/>
<path d="M976.2,703.4c0,1.9-1.5,3.4-3.4,3.4s-3.4-1.5-3.4-3.4s1.5-3.4,3.4-3.4C974.7,700.1,976.2,701.6,976.2,703.4z"/>
<path d="M936.2,704.6c0,1.9-1.5,3.4-3.4,3.4s-3.4-1.5-3.4-3.4s1.5-3.4,3.4-3.4C934.7,701.3,936.2,702.8,936.2,704.6z"/>
<path d="M970.6,730c1.9,4.5,1.6,9.7-0.8,13.8c-1.1,1.9-2.6,3.6-4.6,5c-5.4,3.8-12.5,3.6-17.6,0.1c-1.5-1-2.8-2.3-3.9-3.9
	c-1.6-2.3-2.5-4.9-2.7-7.5L970.6,730z"/>
<path class="st15" d="M969.8,743.8c-1.1,1.9-2.6,3.6-4.6,5c-5.4,3.8-12.5,3.6-17.6,0.1c1.2-3.3,3.7-6.2,7.1-7.7
	C960,738.7,966,740,969.8,743.8z"/>
<rect x="942.2" y="902.7" class="st9" width="16.6" height="47.8"/>
<rect x="983.1" y="902.7" class="st9" width="16.6" height="47.8"/>
<path class="st16" d="M983.2,600.8c0,12.1-9.8,21.9-21.9,21.9c-12.1,0-21.9-9.8-21.9-21.9c0-12.1,9.8-21.9,21.9-21.9
	C973.4,578.8,983.2,588.7,983.2,600.8z"/>
<rect x="958.5" y="621.5" class="st9" width="6.8" height="27.8"/>
<path class="st9" d="M967.3,600.2c0,3.4-2.7,6.1-6.1,6.1c-3.4,0-6.1-2.7-6.1-6.1c0-3.4,2.7-6.1,6.1-6.1
	C964.6,594.1,967.3,596.8,967.3,600.2z"/>
<path class="st17" d="M999.7,841.8c0,11.5-9.3,20.8-20.8,20.8h-43.1c-11.5,0-20.8-9.3-20.8-20.8v-43.1c0-11.5,9.3-20.8,20.8-20.8
	h43.1c11.5,0,20.8,9.3,20.8,20.8V841.8z"/>
<path class="st2" d="M980.7,786.3c0,2.3-1.8,4.1-4.1,4.1s-4.1-1.8-4.1-4.1s1.8-4.1,4.1-4.1C978.8,782.2,980.7,784,980.7,786.3z"/>
<path class="st18" d="M939.6,787c0,2.2-1.8,4-4,4s-4-1.8-4-4s1.8-4,4-4C937.8,783.1,939.6,784.8,939.6,787z"/>
<path class="st3" d="M968.9,786.9c0,2.1-1.7,3.8-3.8,3.8h-18.9c-2.1,0-3.8-1.7-3.8-3.8l0,0c0-2.1,1.7-3.8,3.8-3.8h18.9
	C967.2,783.1,968.9,784.8,968.9,786.9L968.9,786.9z"/>
<path class="st14" d="M520.2,592.6c0,14.8,12,26.8,26.8,26.8s26.8-12,26.8-26.8c0-2.9-0.5-5.7-1.3-8.3l-42.8-12.1
	C523.9,577.1,520.2,584.5,520.2,592.6z"/>
<path d="M546,601.3c0,3,2.4,5.5,5.5,5.5c3,0,5.5-2.4,5.5-5.5c0-3-2.4-5.5-5.5-5.5C548.5,595.8,546,598.3,546,601.3z"/>
<rect x="1274.8" y="288.9" class="st19" width="19.9" height="47.8"/>
<rect x="1324.3" y="288.9" class="st19" width="19.9" height="47.8"/>
<path class="st20" d="M1405.7,224.4c0,47.9-38.9,86.8-86.8,86.8s-86.8-38.9-86.8-86.8s38.9-86.8,86.8-86.8
	C1366.9,137.6,1405.7,176.5,1405.7,224.4z"/>
<rect x="1298.5" y="288.9" class="st20" width="19.9" height="47.8"/>
<rect x="1347.7" y="288.9" class="st20" width="19.9" height="47.8"/>
<path class="st14" d="M1312.3,212.9c0,17.5-14.2,31.7-31.7,31.7s-31.7-14.2-31.7-31.7c0-3.4,0.5-6.7,1.6-9.8l50.6-14.4
	C1308,194.6,1312.3,203.2,1312.3,212.9z"/>
<path d="M1285.2,234.1c0,3.6-2.9,6.5-6.5,6.5s-6.5-2.9-6.5-6.5s2.9-6.5,6.5-6.5S1285.2,230.5,1285.2,234.1z"/>
<path d="M1306,265.9l-26.8,14.7c-2.4-3.1-3.5-7-3.2-10.8c0.1-0.9,0.2-1.8,0.5-2.7c0.2-0.8,0.5-1.6,0.9-2.4c0.6-1.3,1.4-2.5,2.3-3.6
	c3.1-3.7,7.7-5.5,12.1-5.4c1.7,0,3.3,0.3,4.9,0.9c0.1,0,0.1,0,0.2,0.1c1.6,0.6,3.2,1.5,4.6,2.7
	C1303.7,261.1,1305.1,263.4,1306,265.9z"/>
<path class="st21" d="M1296.1,262.3c-0.2,0.1-0.4,0.1-0.6,0.1c-1,0-1.9-0.7-2.2-1.7l-1.4-5.1c1.7,0,3.3,0.3,4.9,0.9
	c0.1,0,0.1,0,0.2,0.1l0.8,2.8C1298,260.7,1297.3,261.9,1296.1,262.3z"/>
<path class="st21" d="M1280.8,271.2c-0.5,0.5-1,0.7-1.6,0.7s-1.2-0.2-1.6-0.7l-1.5-1.5c0.1-0.9,0.2-1.8,0.5-2.7
	c0.2-0.8,0.5-1.6,0.9-2.4l3.4,3.4C1281.7,268.9,1281.7,270.3,1280.8,271.2z"/>
<path class="st22" d="M1309.6,164.9c-3.5,1.3-8.1,2-13.1,1.6s-9.5-1.7-12.8-3.6l3-15l5-24.7c0.3-4.4,4.2-7.7,8.7-7.4
	c2.2,0.2,4.2,1.2,5.5,2.8c1.3,1.6,2.1,3.6,1.9,5.9l1.1,25.2L1309.6,164.9z"/>
<polyline class="st23" points="1251.9,136 1256.4,127.6 1267.9,132.2 1276.3,122.5 1285.9,128.3 "/>
<path class="st20" d="M1400.7,297c-1.6,1.5-4.1,1.4-5.6-0.2l-28.8-31c-1.5-1.6-1.4-4.1,0.2-5.6l0,0c1.6-1.5,4.1-1.4,5.6,0.2l28.8,31
	C1402.4,292.9,1402.3,295.5,1400.7,297L1400.7,297z"/>
<path class="st20" d="M1391.6,294.8L1391.6,294.8l7.6-7.2c1.3-1.2,3.1-1.7,4.8-1.1c1.7,0.5,3,1.9,3.4,3.6l2.4,10.2
	c0.4,1.7-0.1,3.5-1.4,4.8l0,0c-1.3,1.2-3.1,1.7-4.8,1.1l-9.6-2.9c-1-0.2-1.9-0.7-2.7-1.5C1389.5,299.9,1389.6,296.7,1391.6,294.8z"
	/>
<rect x="1557.5" y="881.6" class="st12" width="25.1" height="68.8"/>
<path class="st24" d="M1559.9,902.7c-15.1,0-27.4-12.3-27.4-27.4"/>
<path class="st24" d="M1580.1,895.3c15.1,0,27.4-12.3,27.4-27.4"/>
<path class="st13" d="M1620.5,808h-2.4c-0.1,0-0.2,0-0.3,0v-22c0-21.1-13.9-39-33-45.1c-1.4-7.5-8-13.1-15.9-13.1
	c-7.8,0-14.3,5.5-15.9,12.8c-19.8,5.6-34.3,23.9-34.3,45.5v51.1h-1.4c-8.1,0-14.7,6.6-14.7,14.7v29.7h16.1h14.7h60.4h24h27.1v-49.2
	C1644.9,818.9,1633.9,808,1620.5,808z"/>
<path class="st10" d="M1565.1,922.4c0,1.2-1,2.1-2.1,2.1l0,0c-1.2,0-2.1-1-2.1-2.1v-35.1c0-1.2,1-2.1,2.1-2.1l0,0
	c1.2,0,2.1,1,2.1,2.1V922.4z"/>
<rect x="1332" y="830.5" class="st13" width="49" height="119.7"/>
<path class="st25" d="M1210,814.7c0,5.8,4.7,10.6,10.6,10.6c5.8,0,10.6-4.7,10.6-10.6V798c0-5.8,4.7-10.6,10.6-10.6
	c5.8,0,10.6,4.7,10.6,10.6v10c0,5.8,4.7,10.6,10.6,10.6c5.8,0,10.6-4.7,10.6-10.6v-1.7c0-5.8,4.7-10.6,10.6-10.6s10.6,4.7,10.6,10.6
	v0.1c0,5.8,4.7,10.6,10.6,10.6c5.8,0,10.6-4.7,10.6-10.6V789c0-5.8,4.7-10.6,10.6-10.6c5.8,0,10.6,4.7,10.6,10.6v19.7
	c0,5.8,4.7,10.6,10.6,10.6c5.8,0,10.6-4.7,10.6-10.6V807c0-5.8,4.7-10.6,10.6-10.6c5.8,0,10.6,4.7,10.6,10.6v1.7
	c0,5.8,4.7,10.6,10.6,10.6c5.8,0,10.6-4.7,10.6-10.6v-9.2c0-5.8,4.7-10.6,10.6-10.6c5.8,0,10.6,4.7,10.6,10.6v19.7
	c0,5.8,4.7,10.6,10.6,10.6c5.8,0,10.6-4.7,10.6-10.6V710.3c0,5.8-4.7,10.6-10.6,10.6c-5.8,0-10.6-4.7-10.6-10.6v-13.7
	c0-5.8-4.7-10.6-10.6-10.6c-5.8,0-10.6,4.7-10.6,10.6v13.7c0,5.8-4.7,10.6-10.6,10.6c-5.8,0-10.6-4.7-10.6-10.6v-12.2
	c0-5.8-4.7-10.6-10.6-10.6c-5.8,0-10.6,4.7-10.6,10.6v12.2c0,5.8-4.7,10.6-10.6,10.6c-5.8,0-10.6-4.7-10.6-10.6V693
	c0-5.8-4.7-10.6-10.6-10.6c-5.8,0-10.6,4.7-10.6,10.6v12.8c0,5.8-4.7,10.6-10.6,10.6c-5.8,0-10.6-4.7-10.6-10.6v0.7
	c0-5.8-4.7-10.6-10.6-10.6s-10.6,4.7-10.6,10.6v3.2c0,5.8-4.7,10.6-10.6,10.6c-5.8,0-10.6-4.7-10.6-10.6v-13
	c0-5.8-4.7-10.6-10.6-10.6c-5.8,0-10.6,4.7-10.6,10.6v13.7c0,5.8-4.7,10.6-10.6,10.6c-5.8,0-10.6-4.7-10.6-10.6v-1.5h-0.1"/>
<path class="st13" d="M1431.7,829.7c-5.8,0-10.6-4.7-10.6-10.6v-19.7c0-5.8-4.7-10.6-10.6-10.6c-5.8,0-10.6,4.7-10.6,10.6v9.2
	c0,5.8-4.7,10.6-10.6,10.6s-10.6-4.7-10.6-10.6V807c0-5.8-4.7-10.6-10.6-10.6c-5.8,0-10.6,4.7-10.6,10.6v1.6
	c0,5.8-4.7,10.6-10.6,10.6s-10.6-4.7-10.6-10.6V789c0-5.8-4.7-10.6-10.6-10.6c-5.8,0-10.6,4.7-10.6,10.6v17.5
	c0,5.8-4.7,10.6-10.6,10.6c-5.8,0-10.6-4.7-10.6-10.6v-0.1c0-5.8-4.7-10.6-10.6-10.6c-5.8,0-10.6,4.7-10.6,10.6v1.6
	c0,5.8-4.7,10.6-10.6,10.6c-5.8,0-10.6-4.7-10.6-10.6v-10c0-5.8-4.7-10.6-10.6-10.6c-5.8,0-10.6,4.7-10.6,10.6v16.7
	c0,5.8-4.7,10.6-10.6,10.6c-5.8,0-10.6-4.7-10.6-10.6h-0.1v53.4h232.3v-48.9C1442.2,825,1437.5,829.7,1431.7,829.7z"/>
<path class="st21" d="M1315.8,626.8c0,13.1-10.6,23.6-23.6,23.6c-13.1,0-23.6-10.6-23.6-23.6c0-13.1,10.6-23.6,23.6-23.6
	C1305.2,603.1,1315.8,613.7,1315.8,626.8z"/>
<path class="st21" d="M1263.5,627.2c0,13.1-10.6,23.6-23.6,23.6s-23.6-10.6-23.6-23.6c0-13.1,10.6-23.6,23.6-23.6
	S1263.5,614.1,1263.5,627.2z"/>
<path class="st26" d="M1249.7,611.9c0,1.7-1.3,3-3,3s-3-1.3-3-3s1.3-3,3-3S1249.7,610.2,1249.7,611.9z"/>
<path class="st26" d="M1288.9,611.9c0,1.7-1.3,3-3,3s-3-1.3-3-3s1.3-3,3-3S1288.9,610.2,1288.9,611.9z"/>
<path class="st26" d="M1285.8,668.9c0,4.1-3.3,7.4-7.4,7.4h-24.2c-4.1,0-7.4-3.3-7.4-7.4l0,0c0-4.1,3.3-7.4,7.4-7.4h24.2
	C1282.5,661.5,1285.8,664.8,1285.8,668.9L1285.8,668.9z"/>
<path class="st27" d="M1421,762.3c60.7,0,109.9-49.2,109.9-109.9"/>
<path class="st9" d="M1571.7,633.7c0,23.6-19.1,42.7-42.7,42.7s-42.7-19.1-42.7-42.7c0-23.6,19.1-42.7,42.7-42.7
	C1552.6,591.1,1571.7,610.2,1571.7,633.7z"/>
<path class="st9" d="M1164.3,633.7c0,23.6-19.1,42.7-42.7,42.7s-42.7-19.1-42.7-42.7c0-23.6,19.1-42.7,42.7-42.7
	C1145.2,591.1,1164.3,610.2,1164.3,633.7z"/>
<g>
	<path class="st28" d="M512.5,532c-0.8,0-1.6-0.5-1.9-1.3l-10.9-30.9c-0.4-1,0.2-2.2,1.2-2.6s2.2,0.2,2.6,1.2l10.9,30.9
		c0.4,1-0.2,2.2-1.2,2.6C512.9,532,512.7,532,512.5,532z"/>
</g>
<g>
	<path class="st28" d="M448,520.9c-0.8,0-1.5-0.4-1.8-1.2L432.3,490c-0.5-1,0-2.2,1-2.7s2.2,0,2.7,1l13.9,29.7c0.5,1,0,2.2-1,2.7
		C448.6,520.8,448.3,520.9,448,520.9z"/>
</g>
<g>
	<path class="st28" d="M427.1,511c-0.7,0-1.4-0.4-1.8-1l-15.9-28.7c-0.5-1-0.2-2.2,0.8-2.7s2.2-0.2,2.7,0.8l15.9,28.7
		c0.5,1,0.2,2.2-0.8,2.7C427.7,510.9,427.4,511,427.1,511z"/>
</g>
<g>
	<path class="st28" d="M476.1,489.2c-0.7,0-1.3-0.4-1.7-1L457.7,460c-0.6-1-0.2-2.2,0.7-2.7c1-0.6,2.2-0.2,2.7,0.7l16.7,28.2
		c0.6,1,0.2,2.2-0.7,2.7C476.8,489.2,476.5,489.2,476.1,489.2z"/>
</g>
<g>
	<path class="st28" d="M459.4,501.1c-0.7,0-1.4-0.4-1.8-1.1l-14.5-29.4c-0.5-1-0.1-2.2,0.9-2.7s2.2-0.1,2.7,0.9l14.5,29.4
		c0.5,1,0.1,2.2-0.9,2.7C460,501,459.7,501.1,459.4,501.1z"/>
</g>
<g>
	<path class="st28" d="M445.3,562c-0.3,0-0.6-0.1-0.9-0.2l-29.1-15.3c-1-0.5-1.4-1.7-0.8-2.7c0.5-1,1.7-1.4,2.7-0.8l29.1,15.3
		c1,0.5,1.4,1.7,0.8,2.7C446.7,561.6,446,562,445.3,562z"/>
</g>
<g>
	<path class="st28" d="M486.2,544.3c-0.5,0-1-0.2-1.4-0.6L462,520c-0.8-0.8-0.7-2.1,0.1-2.8c0.8-0.8,2.1-0.7,2.8,0.1l22.8,23.6
		c0.8,0.8,0.7,2.1-0.1,2.8C487.2,544.1,486.7,544.3,486.2,544.3z"/>
</g>
<g>
	<path class="st28" d="M474.7,563.1c-0.5,0-1.1-0.2-1.5-0.6l-22.6-23.8c-0.8-0.8-0.7-2.1,0.1-2.8c0.8-0.8,2.1-0.7,2.8,0.1l22.6,23.8
		c0.8,0.8,0.7,2.1-0.1,2.8C475.7,563,475.2,563.1,474.7,563.1z"/>
</g>
<g>
	<path class="st28" d="M402,551c-0.2,0-0.3,0-0.5-0.1l-31.7-8.6c-1.1-0.3-1.7-1.4-1.4-2.5c0.3-1.1,1.4-1.7,2.5-1.4l31.7,8.6
		c1.1,0.3,1.7,1.4,1.4,2.5C403.6,550.4,402.8,551,402,551z"/>
</g>
<g>
	<path class="st28" d="M436.5,533.3c-0.4,0-0.9-0.1-1.3-0.5L409.9,512c-0.9-0.7-1-2-0.3-2.8c0.7-0.9,2-1,2.8-0.3l25.3,20.9
		c0.9,0.7,1,2,0.3,2.8C437.6,533.1,437,533.3,436.5,533.3z"/>
</g>
<g>
	<path class="st28" d="M492.9,487.3c-0.8,0-1.5-0.4-1.8-1.2l-11.4-24.4c-0.5-1,0-2.2,1-2.7s2.2,0,2.7,1l11.4,24.4c0.5,1,0,2.2-1,2.7
		C493.5,487.2,493.2,487.3,492.9,487.3z"/>
</g>
<g>
	<path class="st28" d="M509.9,557.1c-0.7,0-1.3-0.3-1.7-1l-17-28.1c-0.6-0.9-0.3-2.2,0.7-2.7c0.9-0.6,2.2-0.3,2.7,0.7l17,28.1
		c0.6,0.9,0.3,2.2-0.7,2.7C510.6,557.1,510.2,557.1,509.9,557.1z"/>
</g>
<g>
	<path class="st28" d="M519,497c-0.8,0-1.6-0.5-1.9-1.3l-12-30.6c-0.4-1,0.1-2.2,1.1-2.6s2.2,0.1,2.6,1.1l12,30.6
		c0.4,1-0.1,2.2-1.1,2.6C519.5,496.9,519.2,497,519,497z"/>
</g>
<g>
	<path class="st28" d="M535.2,504.8c-1,0-1.9-0.8-2-1.8l-3.4-32.6c-0.1-1.1,0.7-2.1,1.8-2.2s2.1,0.7,2.2,1.8l3.4,32.6
		c0.1,1.1-0.7,2.1-1.8,2.2C535.4,504.8,535.3,504.8,535.2,504.8z"/>
</g>
<g>
	<path class="st28" d="M529.8,555.7c-1.1,0-2-0.9-2-2l-0.1-32.8c0-1.1,0.9-2,2-2s2,0.9,2,2l0.1,32.8
		C531.8,554.8,530.9,555.7,529.8,555.7L529.8,555.7z"/>
</g>
<g>
	<path class="st28" d="M544.4,559.5c-0.3,0-0.6-0.1-0.9-0.2c-1-0.5-1.3-1.7-0.8-2.7l15.5-28.9c0.5-1,1.7-1.3,2.7-0.8
		s1.3,1.7,0.8,2.7l-15.5,28.9C545.9,559.1,545.2,559.5,544.4,559.5z"/>
</g>
<g>
	<path class="st28" d="M543.6,525.5c-0.3,0-0.6-0.1-0.9-0.2c-1-0.5-1.3-1.7-0.8-2.7l15.5-28.9c0.5-1,1.7-1.3,2.7-0.8
		s1.3,1.7,0.8,2.7l-15.5,28.9C545,525.2,544.3,525.5,543.6,525.5z"/>
</g>
<path class="st12" d="M501.8,645c0,18.9,15.3,34.2,34.2,34.2h3.6c18.9,0,34.2-15.3,34.2-34.2l0,0c0-18.9-15.3-34.2-34.2-34.2H536
	C517.1,610.9,501.8,626.2,501.8,645L501.8,645z"/>
<path d="M521.5,645l3.4,0.8l-1,3.1c-0.5,1.5,0.3,3.1,1.8,3.5c0.3,0.1,0.5,0.1,0.8,0.1c1.2,0.1,2.4-0.7,2.8-1.9l1.2-3.6l18.3,4.1
	l-0.2,3.3c-0.1,1.5,1.1,2.9,2.6,3c0.8,0,1.5-0.2,2-0.7s0.9-1.2,0.9-1.9l0.1-2.4l3.6,0.8c-0.2,3.2-1.2,6.3-3,9.2
	c-1.3,1.9-2.8,3.5-4.5,4.8c-0.1,0-0.1,0.1-0.2,0.1c-1.7,1.2-3.5,2.1-5.4,2.7c-5.2,1.7-11.1,1.1-16.1-2.2c-1.5-1-2.8-2.1-3.9-3.4
	c-0.7-0.8-1.3-1.6-1.8-2.5c-0.6-1-1.1-2-1.5-3C519.8,654.5,519.8,649.5,521.5,645z"/>
<path class="st21" d="M526.5,652.5c-0.3,0-0.5,0-0.8-0.1c-1.5-0.5-2.3-2.1-1.8-3.5l1-3.1l5.5,1.2l-1.2,3.6
	C528.9,651.8,527.8,652.6,526.5,652.5z"/>
<path d="M549.3,634.9c0,4.8,3.9,8.6,8.6,8.6c4.8,0,8.6-3.9,8.6-8.6c0-4.8-3.9-8.6-8.6-8.6C553.2,626.3,549.3,630.2,549.3,634.9z"/>
<path class="st12" d="M354.4,658.2c2,1.8,5,1.7,6.9-0.2l35.1-37.7c1.8-2,1.7-5-0.3-6.9l0,0c-2-1.8-5-1.7-6.9,0.2l-35.1,37.7
	C352.3,653.3,352.4,656.4,354.4,658.2L354.4,658.2z"/>
<path class="st12" d="M365.4,655.6L365.4,655.6l-9.3-8.8c-1.6-1.5-3.8-2-5.9-1.4s-3.7,2.3-4.2,4.4l-2.9,12.4
	c-0.5,2.1,0.2,4.3,1.7,5.8l0,0c1.6,1.5,3.8,2,5.9,1.4l11.6-3.5c1.2-0.2,2.4-0.8,3.3-1.8C367.9,661.8,367.8,657.9,365.4,655.6z"/>
<g>
	<path class="st28" d="M564,555.7c-0.3,0-0.6-0.1-0.9-0.2c-1-0.5-1.3-1.7-0.8-2.7l15.5-28.9c0.5-1,1.7-1.3,2.7-0.8s1.3,1.7,0.8,2.7
		l-15.5,28.9C565.4,555.3,564.7,555.7,564,555.7z"/>
</g>
<g>
	<path class="st28" d="M409.2,531.8c-0.3,0-0.6-0.1-0.9-0.2l-29.1-15.3c-1-0.5-1.4-1.7-0.8-2.7c0.5-1,1.7-1.4,2.7-0.8l29.1,15.3
		c1,0.5,1.4,1.7,0.8,2.7C410.6,531.4,409.9,531.8,409.2,531.8z"/>
</g>
<rect x="0.3" y="950.3" class="st17" width="1920" height="6.3"/>
<rect x="0.3" y="956.7" class="st9" width="1920" height="41.6"/>
<rect x="0.3" y="998.2" class="st11" width="1920" height="81.8"/>
<g>
	<path class="st12" d="M543,1020.6c0,8-6.5,14.5-14.5,14.5s-14.5-6.5-14.5-14.5s6.5-14.5,14.5-14.5S543,1012.6,543,1020.6z"/>
	<path class="st12" d="M565.7,1014.8c0,4.5-3.7,8.2-8.2,8.2s-8.2-3.7-8.2-8.2c0-4.6,3.7-8.2,8.2-8.2
		C562.1,1006.6,565.7,1010.3,565.7,1014.8z"/>
	<path class="st12" d="M572.7,1040.5c0,8.2-6.7,14.9-14.9,14.9s-14.9-6.7-14.9-14.9c0-8.2,6.7-14.9,14.9-14.9
		C566.1,1025.6,572.7,1032.3,572.7,1040.5z"/>
	<path class="st12" d="M538.9,1047.4c0,4.3-3.5,7.8-7.8,7.8s-7.8-3.5-7.8-7.8s3.5-7.8,7.8-7.8
		C535.4,1039.7,538.9,1043.1,538.9,1047.4z"/>
	<path class="st12" d="M511.8,1030.1c0,8.5-6.9,15.3-15.3,15.3c-8.5,0-15.3-6.9-15.3-15.3c0-8.5,6.9-15.3,15.3-15.3
		S511.8,1021.7,511.8,1030.1z"/>
	<path class="st12" d="M514.7,1049.1c0,2-1.7,3.7-3.7,3.7s-3.7-1.7-3.7-3.7s1.7-3.7,3.7-3.7S514.7,1047.1,514.7,1049.1z"/>
	<path class="st12" d="M601.8,1020.6c0,8-6.5,14.5-14.5,14.5s-14.5-6.5-14.5-14.5s6.5-14.5,14.5-14.5S601.8,1012.6,601.8,1020.6z"/>
	<path class="st12" d="M593.5,1047.3c0,4.2-3.4,7.7-7.7,7.7c-4.2,0-7.7-3.4-7.7-7.7s3.4-7.7,7.7-7.7
		C590.1,1039.7,593.5,1043.1,593.5,1047.3z"/>
	<path class="st12" d="M605.6,1040.1c0,2.7-2.2,4.9-4.9,4.9s-4.9-2.2-4.9-4.9c0-2.7,2.2-4.9,4.9-4.9
		C603.4,1035.2,605.6,1037.4,605.6,1040.1z"/>
	<path class="st12" d="M640.4,1032.1c0,8.5-6.9,15.4-15.4,15.4s-15.4-6.9-15.4-15.4s6.9-15.4,15.4-15.4
		C633.5,1016.6,640.4,1023.5,640.4,1032.1z"/>
	<path class="st12" d="M616,1012.5c0,3.6-2.9,6.4-6.4,6.4c-3.6,0-6.4-2.9-6.4-6.4c0-3.6,2.9-6.4,6.4-6.4S616,1009,616,1012.5z"/>
	<path class="st12" d="M622.4,1058.3c0,6-4.9,10.8-10.8,10.8c-6,0-10.8-4.9-10.8-10.8c0-6,4.9-10.8,10.8-10.8
		S622.4,1052.3,622.4,1058.3z"/>
	<path class="st12" d="M551.2,1059.1c0,2.3-1.8,4.1-4.1,4.1s-4.1-1.8-4.1-4.1s1.8-4.1,4.1-4.1C549.3,1055,551.2,1056.8,551.2,1059.1
		z"/>
	<path class="st12" d="M584.4,1067c0,5.2-4.2,9.3-9.3,9.3c-5.2,0-9.3-4.2-9.3-9.3c0-5.2,4.2-9.3,9.3-9.3
		C580.2,1057.6,584.4,1061.8,584.4,1067z"/>
	<path class="st12" d="M595.8,1063.4c0,2-1.6,3.5-3.5,3.5c-2,0-3.5-1.6-3.5-3.5c0-2,1.6-3.5,3.5-3.5S595.8,1061.5,595.8,1063.4z"/>
	<path class="st12" d="M531.1,1067.3c0,5.3-4.3,9.7-9.7,9.7c-5.3,0-9.7-4.3-9.7-9.7c0-5.3,4.3-9.7,9.7-9.7
		C526.8,1057.6,531.1,1061.9,531.1,1067.3z"/>
	<path class="st12" d="M504.5,1058c0,5.8-4.7,10.5-10.5,10.5s-10.5-4.7-10.5-10.5s4.7-10.5,10.5-10.5S504.5,1052.2,504.5,1058z"/>
	<path class="st12" d="M483.5,1044.6c0,3.6-2.9,6.6-6.6,6.6c-3.6,0-6.6-2.9-6.6-6.6c0-3.6,2.9-6.6,6.6-6.6
		S483.5,1040.9,483.5,1044.6z"/>
	<path class="st12" d="M477.3,1023c0,5.8-4.7,10.5-10.5,10.5s-10.5-4.7-10.5-10.5s4.7-10.5,10.5-10.5
		C472.7,1012.5,477.3,1017.2,477.3,1023z"/>
	<path class="st12" d="M486.3,1009.8c0,2-1.7,3.7-3.7,3.7s-3.7-1.7-3.7-3.7s1.7-3.7,3.7-3.7C484.6,1006.1,486.3,1007.8,486.3,1009.8
		z"/>
	<path class="st12" d="M508.2,1009.3c0,1.8-1.4,3.2-3.2,3.2c-1.8,0-3.2-1.4-3.2-3.2s1.4-3.2,3.2-3.2
		C506.8,1006.1,508.2,1007.5,508.2,1009.3z"/>
	<path class="st12" d="M631.6,1010.7c0,2.6-2.1,4.6-4.6,4.6c-2.6,0-4.6-2.1-4.6-4.6c0-2.6,2.1-4.6,4.6-4.6
		C629.6,1006.1,631.6,1008.2,631.6,1010.7z"/>
	<path class="st12" d="M643.3,1059c0,4.4-3.5,7.9-7.9,7.9s-7.9-3.5-7.9-7.9s3.5-7.9,7.9-7.9C639.7,1051.1,643.3,1054.7,643.3,1059z"
		/>
	<path class="st12" d="M649.9,1045.8c0,1.8-1.5,3.3-3.3,3.3s-3.3-1.5-3.3-3.3s1.5-3.3,3.3-3.3S649.9,1044,649.9,1045.8z"/>
	<path class="st12" d="M655.4,1035c0,3.3-2.7,6-6,6s-6-2.7-6-6s2.7-6,6-6S655.4,1031.7,655.4,1035z"/>
	<path class="st12" d="M657.9,1016.7c0,4-3.2,7.2-7.2,7.2s-7.2-3.2-7.2-7.2s3.2-7.2,7.2-7.2S657.9,1012.7,657.9,1016.7z"/>
	<path class="st12" d="M671,1030.9c0,2.9-2.4,5.3-5.3,5.3c-2.9,0-5.3-2.4-5.3-5.3s2.4-5.3,5.3-5.3C668.7,1025.6,671,1028,671,1030.9
		z"/>
	<path class="st12" d="M668.1,1049.6c0,2.8-2.3,5.1-5.1,5.1s-5.1-2.3-5.1-5.1c0-2.8,2.3-5.1,5.1-5.1S668.1,1046.8,668.1,1049.6z"/>
	<path class="st12" d="M656.5,1060.5c0,1.6-1.3,2.9-2.9,2.9c-1.6,0-2.9-1.3-2.9-2.9s1.3-2.9,2.9-2.9S656.5,1058.9,656.5,1060.5z"/>
</g>
<g>
	<path class="st12" d="M873.1,1019c0,8-6.5,14.5-14.5,14.5s-14.5-6.5-14.5-14.5s6.5-14.5,14.5-14.5S873.1,1011,873.1,1019z"/>
	<path class="st12" d="M895.8,1013.2c0,4.6-3.7,8.2-8.2,8.2s-8.2-3.7-8.2-8.2c0-4.6,3.7-8.2,8.2-8.2S895.8,1008.7,895.8,1013.2z"/>
	<path class="st12" d="M902.8,1038.9c0,8.2-6.7,14.9-14.9,14.9s-14.9-6.7-14.9-14.9c0-8.2,6.7-14.9,14.9-14.9
		C896.2,1024,902.8,1030.7,902.8,1038.9z"/>
	<path class="st12" d="M869,1045.9c0,4.3-3.5,7.8-7.8,7.8s-7.8-3.5-7.8-7.8s3.5-7.8,7.8-7.8S869,1041.6,869,1045.9z"/>
	<path class="st12" d="M841.9,1028.5c0,8.5-6.9,15.3-15.3,15.3s-15.3-6.9-15.3-15.3c0-8.5,6.9-15.3,15.3-15.3
		S841.9,1020.1,841.9,1028.5z"/>
	<path class="st12" d="M844.8,1047.6c0,2-1.7,3.7-3.7,3.7s-3.7-1.7-3.7-3.7s1.7-3.7,3.7-3.7S844.8,1045.5,844.8,1047.6z"/>
	<path class="st12" d="M931.9,1019c0,8-6.5,14.5-14.5,14.5s-14.5-6.5-14.5-14.5s6.5-14.5,14.5-14.5S931.9,1011,931.9,1019z"/>
	<path class="st12" d="M923.6,1045.7c0,4.2-3.4,7.7-7.7,7.7c-4.2,0-7.7-3.4-7.7-7.7c0-4.2,3.4-7.7,7.7-7.7
		C920.2,1038.1,923.6,1041.5,923.6,1045.7z"/>
	<path class="st12" d="M935.7,1038.5c0,2.7-2.2,4.9-4.9,4.9s-4.9-2.2-4.9-4.9c0-2.7,2.2-4.9,4.9-4.9S935.7,1035.8,935.7,1038.5z"/>
	<path class="st12" d="M970.5,1030.5c0,8.5-6.9,15.4-15.4,15.4s-15.4-6.9-15.4-15.4s6.9-15.4,15.4-15.4
		C963.6,1015,970.5,1021.9,970.5,1030.5z"/>
	<path class="st12" d="M946.1,1010.9c0,3.6-2.9,6.4-6.4,6.4c-3.6,0-6.4-2.9-6.4-6.4c0-3.6,2.9-6.4,6.4-6.4
		C943.2,1004.5,946.1,1007.4,946.1,1010.9z"/>
	<path class="st12" d="M952.4,1056.7c0,6-4.9,10.8-10.8,10.8c-6,0-10.8-4.9-10.8-10.8c0-6,4.9-10.8,10.8-10.8
		C947.6,1045.9,952.4,1050.8,952.4,1056.7z"/>
	<path class="st12" d="M881.2,1057.5c0,2.3-1.8,4.1-4.1,4.1s-4.1-1.8-4.1-4.1c0-2.3,1.8-4.1,4.1-4.1S881.2,1055.2,881.2,1057.5z"/>
	<path class="st12" d="M914.5,1065.4c0,5.2-4.2,9.3-9.3,9.3c-5.2,0-9.3-4.2-9.3-9.3c0-5.2,4.2-9.3,9.3-9.3
		C910.3,1056,914.5,1060.2,914.5,1065.4z"/>
	<path class="st12" d="M925.9,1061.8c0,2-1.6,3.5-3.5,3.5c-2,0-3.5-1.6-3.5-3.5c0-2,1.6-3.5,3.5-3.5
		C924.3,1058.3,925.9,1059.9,925.9,1061.8z"/>
	<path class="st12" d="M861.2,1065.7c0,5.3-4.3,9.7-9.7,9.7c-5.3,0-9.7-4.3-9.7-9.7c0-5.3,4.3-9.7,9.7-9.7
		S861.2,1060.4,861.2,1065.7z"/>
	<path class="st12" d="M834.6,1056.4c0,5.8-4.7,10.5-10.5,10.5s-10.5-4.7-10.5-10.5s4.7-10.5,10.5-10.5
		C829.9,1045.9,834.6,1050.6,834.6,1056.4z"/>
	<path class="st12" d="M813.6,1043c0,3.6-2.9,6.6-6.6,6.6c-3.6,0-6.6-2.9-6.6-6.6c0-3.6,2.9-6.6,6.6-6.6
		C810.7,1036.4,813.6,1039.3,813.6,1043z"/>
	<path class="st12" d="M807.4,1021.4c0,5.8-4.7,10.5-10.5,10.5s-10.5-4.7-10.5-10.5c0-5.8,4.7-10.5,10.5-10.5
		C802.8,1010.9,807.4,1015.6,807.4,1021.4z"/>
	<path class="st12" d="M816.4,1008.2c0,2-1.7,3.7-3.7,3.7s-3.7-1.7-3.7-3.7s1.7-3.7,3.7-3.7S816.4,1006.2,816.4,1008.2z"/>
	<path class="st12" d="M838.3,1007.7c0,1.8-1.4,3.2-3.2,3.2s-3.2-1.4-3.2-3.2s1.4-3.2,3.2-3.2
		C836.9,1004.5,838.3,1005.9,838.3,1007.7z"/>
	<path class="st12" d="M961.7,1009.1c0,2.6-2.1,4.6-4.6,4.6c-2.6,0-4.6-2.1-4.6-4.6c0-2.6,2.1-4.6,4.6-4.6
		C959.6,1004.5,961.7,1006.6,961.7,1009.1z"/>
	<path class="st12" d="M973.3,1057.4c0,4.4-3.5,7.9-7.9,7.9s-7.9-3.5-7.9-7.9s3.5-7.9,7.9-7.9S973.3,1053.1,973.3,1057.4z"/>
	<path class="st12" d="M980,1044.2c0,1.8-1.5,3.3-3.3,3.3s-3.3-1.5-3.3-3.3s1.5-3.3,3.3-3.3C978.5,1040.9,980,1042.4,980,1044.2z"/>
	<path class="st12" d="M985.5,1033.4c0,3.3-2.7,6-6,6s-6-2.7-6-6s2.7-6,6-6S985.5,1030.1,985.5,1033.4z"/>
	<path class="st12" d="M988,1015.1c0,4-3.2,7.2-7.2,7.2s-7.2-3.2-7.2-7.2s3.2-7.2,7.2-7.2C984.8,1007.9,988,1011.1,988,1015.1z"/>
	<path class="st12" d="M1001.1,1029.3c0,2.9-2.4,5.3-5.3,5.3s-5.3-2.4-5.3-5.3s2.4-5.3,5.3-5.3S1001.1,1026.4,1001.1,1029.3z"/>
	<path class="st12" d="M998.1,1048c0,2.8-2.3,5.1-5.1,5.1s-5.1-2.3-5.1-5.1c0-2.8,2.3-5.1,5.1-5.1
		C995.9,1042.9,998.1,1045.2,998.1,1048z"/>
	<path class="st12" d="M986.6,1058.9c0,1.6-1.3,2.9-2.9,2.9c-1.6,0-2.9-1.3-2.9-2.9s1.3-2.9,2.9-2.9S986.6,1057.3,986.6,1058.9z"/>
</g>
<g>
	<path class="st12" d="M1224.6,1018.2c0,8-6.5,14.5-14.5,14.5s-14.5-6.5-14.5-14.5s6.5-14.5,14.5-14.5
		C1218.1,1003.7,1224.6,1010.2,1224.6,1018.2z"/>
	<path class="st12" d="M1247.4,1012.4c0,4.5-3.7,8.2-8.2,8.2s-8.2-3.7-8.2-8.2c0-4.6,3.7-8.2,8.2-8.2S1247.4,1007.8,1247.4,1012.4z"
		/>
	<path class="st12" d="M1254.4,1038.1c0,8.2-6.7,14.9-14.9,14.9c-8.2,0-14.9-6.7-14.9-14.9c0-8.2,6.7-14.9,14.9-14.9
		C1247.7,1023.2,1254.4,1029.9,1254.4,1038.1z"/>
	<path class="st12" d="M1220.5,1045c0,4.3-3.5,7.8-7.8,7.8s-7.8-3.5-7.8-7.8s3.5-7.8,7.8-7.8S1220.5,1040.7,1220.5,1045z"/>
	<path class="st12" d="M1193.4,1027.7c0,8.5-6.9,15.3-15.3,15.3c-8.5,0-15.3-6.9-15.3-15.3c0-8.5,6.9-15.3,15.3-15.3
		C1186.5,1012.4,1193.4,1019.3,1193.4,1027.7z"/>
	<path class="st12" d="M1196.3,1046.7c0,2-1.7,3.7-3.7,3.7s-3.7-1.7-3.7-3.7s1.7-3.7,3.7-3.7
		C1194.7,1043,1196.3,1044.7,1196.3,1046.7z"/>
	<path class="st12" d="M1283.4,1018.2c0,8-6.5,14.5-14.5,14.5s-14.5-6.5-14.5-14.5s6.5-14.5,14.5-14.5
		C1276.9,1003.7,1283.4,1010.2,1283.4,1018.2z"/>
	<path class="st12" d="M1275.1,1044.9c0,4.2-3.4,7.7-7.7,7.7s-7.7-3.4-7.7-7.7s3.4-7.7,7.7-7.7S1275.1,1040.7,1275.1,1044.9z"/>
	<path class="st12" d="M1287.2,1037.6c0,2.7-2.2,4.9-4.9,4.9c-2.7,0-4.9-2.2-4.9-4.9c0-2.7,2.2-4.9,4.9-4.9
		S1287.2,1034.9,1287.2,1037.6z"/>
	<path class="st12" d="M1322,1029.6c0,8.5-6.9,15.4-15.4,15.4s-15.4-6.9-15.4-15.4s6.9-15.4,15.4-15.4
		C1315.1,1014.2,1322,1021.1,1322,1029.6z"/>
	<path class="st12" d="M1297.6,1010.1c0,3.6-2.9,6.4-6.4,6.4s-6.4-2.9-6.4-6.4c0-3.6,2.9-6.4,6.4-6.4S1297.6,1006.6,1297.6,1010.1z"
		/>
	<path class="st12" d="M1304,1055.9c0,6-4.9,10.8-10.8,10.8s-10.8-4.9-10.8-10.8c0-6,4.9-10.8,10.8-10.8S1304,1049.9,1304,1055.9z"
		/>
	<path class="st12" d="M1232.8,1056.7c0,2.3-1.8,4.1-4.1,4.1c-2.3,0-4.1-1.8-4.1-4.1c0-2.3,1.8-4.1,4.1-4.1
		S1232.8,1054.4,1232.8,1056.7z"/>
	<path class="st12" d="M1266,1064.5c0,5.2-4.2,9.3-9.3,9.3c-5.2,0-9.3-4.2-9.3-9.3c0-5.2,4.2-9.3,9.3-9.3
		C1261.9,1055.2,1266,1059.4,1266,1064.5z"/>
	<path class="st12" d="M1277.5,1061c0,2-1.6,3.5-3.5,3.5c-2,0-3.5-1.6-3.5-3.5c0-2,1.6-3.5,3.5-3.5S1277.5,1059,1277.5,1061z"/>
	<path class="st12" d="M1212.7,1064.9c0,5.3-4.3,9.7-9.7,9.7c-5.3,0-9.7-4.3-9.7-9.7c0-5.3,4.3-9.7,9.7-9.7
		C1208.4,1055.2,1212.7,1059.5,1212.7,1064.9z"/>
	<path class="st12" d="M1186.2,1055.6c0,5.8-4.7,10.5-10.5,10.5s-10.5-4.7-10.5-10.5s4.7-10.5,10.5-10.5
		S1186.2,1049.8,1186.2,1055.6z"/>
	<path class="st12" d="M1165.2,1042.1c0,3.6-2.9,6.6-6.6,6.6s-6.6-2.9-6.6-6.6c0-3.6,2.9-6.6,6.6-6.6S1165.2,1038.5,1165.2,1042.1z"
		/>
	<path class="st12" d="M1159,1020.6c0,5.8-4.7,10.5-10.5,10.5s-10.5-4.7-10.5-10.5c0-5.8,4.7-10.5,10.5-10.5
		S1159,1014.8,1159,1020.6z"/>
	<path class="st12" d="M1167.9,1007.4c0,2-1.7,3.7-3.7,3.7s-3.7-1.7-3.7-3.7s1.7-3.7,3.7-3.7
		C1166.3,1003.7,1167.9,1005.3,1167.9,1007.4z"/>
	<path class="st12" d="M1189.8,1006.9c0,1.8-1.4,3.2-3.2,3.2s-3.2-1.4-3.2-3.2s1.4-3.2,3.2-3.2S1189.8,1005.1,1189.8,1006.9z"/>
	<path class="st12" d="M1313.3,1008.3c0,2.6-2.1,4.6-4.6,4.6c-2.6,0-4.6-2.1-4.6-4.6c0-2.6,2.1-4.6,4.6-4.6
		C1311.2,1003.7,1313.3,1005.8,1313.3,1008.3z"/>
	<path class="st12" d="M1324.9,1056.6c0,4.4-3.5,7.9-7.9,7.9s-7.9-3.5-7.9-7.9s3.5-7.9,7.9-7.9
		C1321.3,1048.7,1324.9,1052.2,1324.9,1056.6z"/>
	<path class="st12" d="M1331.5,1043.4c0,1.8-1.5,3.3-3.3,3.3s-3.3-1.5-3.3-3.3s1.5-3.3,3.3-3.3S1331.5,1041.6,1331.5,1043.4z"/>
	<path class="st12" d="M1337,1032.6c0,3.3-2.7,6-6,6s-6-2.7-6-6s2.7-6,6-6S1337,1029.3,1337,1032.6z"/>
	<path class="st12" d="M1339.5,1014.3c0,4-3.2,7.2-7.2,7.2s-7.2-3.2-7.2-7.2s3.2-7.2,7.2-7.2
		C1336.3,1007,1339.5,1010.3,1339.5,1014.3z"/>
	<path class="st12" d="M1352.7,1028.5c0,2.9-2.4,5.3-5.3,5.3s-5.3-2.4-5.3-5.3s2.4-5.3,5.3-5.3
		C1350.3,1023.2,1352.7,1025.6,1352.7,1028.5z"/>
	<path class="st12" d="M1349.7,1047.2c0,2.8-2.3,5.1-5.1,5.1s-5.1-2.3-5.1-5.1c0-2.8,2.3-5.1,5.1-5.1S1349.7,1044.4,1349.7,1047.2z"
		/>
	<path class="st12" d="M1338.1,1058.1c0,1.6-1.3,2.9-2.9,2.9s-2.9-1.3-2.9-2.9s1.3-2.9,2.9-2.9
		C1336.8,1055.2,1338.1,1056.5,1338.1,1058.1z"/>
</g>
<rect x="1222.5" y="336.6" class="st17" width="193" height="6.3"/>
<rect x="1222.5" y="343" class="st9" width="193" height="41.6"/>
<rect x="1222.5" y="384.6" class="st11" width="193" height="81.8"/>
<path class="st12" d="M1317.2,404c0,8-6.5,14.5-14.5,14.5s-14.5-6.5-14.5-14.5s6.5-14.5,14.5-14.5
	C1310.7,389.4,1317.2,395.9,1317.2,404z"/>
<path class="st12" d="M1340,398.2c0,4.6-3.7,8.2-8.2,8.2c-4.6,0-8.2-3.7-8.2-8.2c0-4.6,3.7-8.2,8.2-8.2
	C1336.3,389.9,1340,393.6,1340,398.2z"/>
<path class="st12" d="M1347,423.8c0,8.2-6.7,14.9-14.9,14.9c-8.2,0-14.9-6.7-14.9-14.9c0-8.2,6.7-14.9,14.9-14.9
	C1340.3,409,1347,415.6,1347,423.8z"/>
<path class="st12" d="M1313.1,430.8c0,4.3-3.5,7.8-7.8,7.8s-7.8-3.5-7.8-7.8s3.5-7.8,7.8-7.8S1313.1,426.5,1313.1,430.8z"/>
<path class="st12" d="M1286,413.5c0,8.5-6.9,15.3-15.3,15.3c-8.5,0-15.3-6.9-15.3-15.3c0-8.5,6.9-15.3,15.3-15.3
	S1286,405,1286,413.5z"/>
<path class="st12" d="M1288.9,432.5c0,2-1.7,3.7-3.7,3.7s-3.7-1.7-3.7-3.7s1.7-3.7,3.7-3.7S1288.9,430.4,1288.9,432.5z"/>
<path class="st12" d="M1376,404c0,8-6.5,14.5-14.5,14.5S1347,412,1347,404s6.5-14.5,14.5-14.5S1376,395.9,1376,404z"/>
<path class="st12" d="M1367.7,430.7c0,4.2-3.4,7.7-7.7,7.7c-4.2,0-7.7-3.4-7.7-7.7c0-4.2,3.4-7.7,7.7-7.7
	C1364.3,423,1367.7,426.4,1367.7,430.7z"/>
<path class="st12" d="M1379.8,423.4c0,2.7-2.2,4.9-4.9,4.9s-4.9-2.2-4.9-4.9c0-2.7,2.2-4.9,4.9-4.9S1379.8,420.7,1379.8,423.4z"/>
<path class="st12" d="M1390.2,395.9c0,3.6-2.9,6.4-6.4,6.4s-6.4-2.9-6.4-6.4c0-3.6,2.9-6.4,6.4-6.4S1390.2,392.3,1390.2,395.9z"/>
<path class="st12" d="M1396.6,441.7c0,6-4.9,10.8-10.8,10.8c-6,0-10.8-4.9-10.8-10.8c0-6,4.9-10.8,10.8-10.8
	C1391.7,430.8,1396.6,435.7,1396.6,441.7z"/>
<path class="st12" d="M1325.4,442.4c0,2.3-1.8,4.1-4.1,4.1c-2.3,0-4.1-1.8-4.1-4.1c0-2.3,1.8-4.1,4.1-4.1
	C1323.6,438.4,1325.4,440.2,1325.4,442.4z"/>
<path class="st12" d="M1358.6,450.3c0,5.2-4.2,9.3-9.3,9.3s-9.3-4.2-9.3-9.3c0-5.2,4.2-9.3,9.3-9.3S1358.6,445.1,1358.6,450.3z"/>
<path class="st12" d="M1370.1,446.8c0,2-1.6,3.5-3.5,3.5c-2,0-3.5-1.6-3.5-3.5c0-2,1.6-3.5,3.5-3.5
	C1368.5,443.2,1370.1,444.8,1370.1,446.8z"/>
<path class="st12" d="M1305.3,450.6c0,5.3-4.3,9.7-9.7,9.7c-5.3,0-9.7-4.3-9.7-9.7c0-5.3,4.3-9.7,9.7-9.7
	C1301,441,1305.3,445.3,1305.3,450.6z"/>
<path class="st12" d="M1278.8,441.3c0,5.8-4.7,10.5-10.5,10.5s-10.5-4.7-10.5-10.5s4.7-10.5,10.5-10.5
	C1274.1,430.8,1278.8,435.5,1278.8,441.3z"/>
<path class="st12" d="M1257.8,427.9c0,3.6-2.9,6.6-6.6,6.6c-3.6,0-6.6-2.9-6.6-6.6s2.9-6.6,6.6-6.6
	C1254.8,421.3,1257.8,424.3,1257.8,427.9z"/>
<path class="st12" d="M1251.6,406.3c0,5.8-4.7,10.5-10.5,10.5s-10.5-4.7-10.5-10.5s4.7-10.5,10.5-10.5
	C1246.9,395.9,1251.6,400.5,1251.6,406.3z"/>
<path class="st12" d="M1260.5,393.1c0,2-1.7,3.7-3.7,3.7s-3.7-1.7-3.7-3.7s1.7-3.7,3.7-3.7S1260.5,391.1,1260.5,393.1z"/>
<path class="st12" d="M1282.4,392.6c0,1.8-1.4,3.2-3.2,3.2s-3.2-1.4-3.2-3.2c0-1.8,1.4-3.2,3.2-3.2S1282.4,390.9,1282.4,392.6z"/>
<path class="st12" d="M1405.9,394.1c0,2.6-2.1,4.6-4.6,4.6c-2.6,0-4.6-2.1-4.6-4.6c0-2.6,2.1-4.6,4.6-4.6
	C1403.8,389.4,1405.9,391.5,1405.9,394.1z"/>
<path class="st12" d="M1399.6,415.2c0,4.4-3.5,7.9-7.9,7.9s-7.9-3.5-7.9-7.9s3.5-7.9,7.9-7.9C1396,407.3,1399.6,410.8,1399.6,415.2z
	"/>
<g>
	<path class="st12" d="M1616.4,1020.1c0,8-6.5,14.5-14.5,14.5s-14.5-6.5-14.5-14.5s6.5-14.5,14.5-14.5
		C1609.9,1005.5,1616.4,1012,1616.4,1020.1z"/>
	<path class="st12" d="M1639.1,1014.3c0,4.6-3.7,8.2-8.2,8.2s-8.2-3.7-8.2-8.2c0-4.6,3.7-8.2,8.2-8.2S1639.1,1009.7,1639.1,1014.3z"
		/>
	<path class="st12" d="M1646.1,1039.9c0,8.2-6.7,14.9-14.9,14.9s-14.9-6.7-14.9-14.9c0-8.2,6.7-14.9,14.9-14.9
		S1646.1,1031.7,1646.1,1039.9z"/>
	<path class="st12" d="M1612.3,1046.9c0,4.3-3.5,7.8-7.8,7.8s-7.8-3.5-7.8-7.8s3.5-7.8,7.8-7.8S1612.3,1042.6,1612.3,1046.9z"/>
	<path class="st12" d="M1585.2,1029.6c0,8.5-6.9,15.3-15.3,15.3c-8.5,0-15.3-6.9-15.3-15.3c0-8.5,6.9-15.3,15.3-15.3
		C1578.3,1014.3,1585.2,1021.1,1585.2,1029.6z"/>
	<path class="st12" d="M1588.1,1048.6c0,2-1.7,3.7-3.7,3.7s-3.7-1.7-3.7-3.7s1.7-3.7,3.7-3.7S1588.1,1046.5,1588.1,1048.6z"/>
	<path class="st12" d="M1675.2,1020.1c0,8-6.5,14.5-14.5,14.5s-14.5-6.5-14.5-14.5s6.5-14.5,14.5-14.5S1675.2,1012,1675.2,1020.1z"
		/>
	<path class="st12" d="M1666.9,1046.8c0,4.2-3.4,7.7-7.7,7.7s-7.7-3.4-7.7-7.7c0-4.2,3.4-7.7,7.7-7.7S1666.9,1042.5,1666.9,1046.8z"
		/>
	<path class="st12" d="M1679,1039.5c0,2.7-2.2,4.9-4.9,4.9c-2.7,0-4.9-2.2-4.9-4.9c0-2.7,2.2-4.9,4.9-4.9S1679,1036.8,1679,1039.5z"
		/>
	<path class="st12" d="M1713.8,1031.5c0,8.5-6.9,15.4-15.4,15.4s-15.4-6.9-15.4-15.4s6.9-15.4,15.4-15.4S1713.8,1023,1713.8,1031.5z
		"/>
	<path class="st12" d="M1689.4,1012c0,3.6-2.9,6.4-6.4,6.4c-3.6,0-6.4-2.9-6.4-6.4c0-3.6,2.9-6.4,6.4-6.4
		C1686.5,1005.5,1689.4,1008.4,1689.4,1012z"/>
	<path class="st12" d="M1695.7,1057.8c0,6-4.9,10.8-10.8,10.8s-10.8-4.9-10.8-10.8c0-6,4.9-10.8,10.8-10.8
		S1695.7,1051.8,1695.7,1057.8z"/>
	<path class="st12" d="M1624.6,1058.5c0,2.3-1.8,4.1-4.1,4.1c-2.3,0-4.1-1.8-4.1-4.1c0-2.3,1.8-4.1,4.1-4.1
		C1622.7,1054.5,1624.6,1056.3,1624.6,1058.5z"/>
	<path class="st12" d="M1657.8,1066.4c0,5.2-4.2,9.3-9.3,9.3s-9.3-4.2-9.3-9.3c0-5.2,4.2-9.3,9.3-9.3S1657.8,1061.2,1657.8,1066.4z"
		/>
	<path class="st12" d="M1669.2,1062.9c0,2-1.6,3.5-3.5,3.5s-3.5-1.6-3.5-3.5s1.6-3.5,3.5-3.5S1669.2,1060.9,1669.2,1062.9z"/>
	<path class="st12" d="M1604.5,1066.7c0,5.3-4.3,9.7-9.7,9.7s-9.7-4.3-9.7-9.7c0-5.3,4.3-9.7,9.7-9.7S1604.5,1061.4,1604.5,1066.7z"
		/>
	<path class="st12" d="M1577.9,1057.4c0,5.8-4.7,10.5-10.5,10.5s-10.5-4.7-10.5-10.5s4.7-10.5,10.5-10.5
		C1573.2,1046.9,1577.9,1051.6,1577.9,1057.4z"/>
	<path class="st12" d="M1556.9,1044c0,3.6-2.9,6.6-6.6,6.6s-6.6-2.9-6.6-6.6s2.9-6.6,6.6-6.6S1556.9,1040.4,1556.9,1044z"/>
	<path class="st12" d="M1550.7,1022.4c0,5.8-4.7,10.5-10.5,10.5s-10.5-4.7-10.5-10.5c0-5.8,4.7-10.5,10.5-10.5
		C1546.1,1012,1550.7,1016.6,1550.7,1022.4z"/>
	<path class="st12" d="M1559.7,1009.2c0,2-1.7,3.7-3.7,3.7s-3.7-1.7-3.7-3.7s1.7-3.7,3.7-3.7S1559.7,1007.2,1559.7,1009.2z"/>
	<path class="st12" d="M1581.6,1008.8c0,1.8-1.4,3.2-3.2,3.2s-3.2-1.4-3.2-3.2s1.4-3.2,3.2-3.2S1581.6,1007,1581.6,1008.8z"/>
	<path class="st12" d="M1705,1010.2c0,2.6-2.1,4.6-4.6,4.6c-2.6,0-4.6-2.1-4.6-4.6c0-2.6,2.1-4.6,4.6-4.6
		C1703,1005.5,1705,1007.6,1705,1010.2z"/>
	<path class="st12" d="M1716.6,1058.5c0,4.4-3.5,7.9-7.9,7.9s-7.9-3.5-7.9-7.9s3.5-7.9,7.9-7.9S1716.6,1054.1,1716.6,1058.5z"/>
	<path class="st12" d="M1723.3,1045.3c0,1.8-1.5,3.3-3.3,3.3s-3.3-1.5-3.3-3.3s1.5-3.3,3.3-3.3S1723.3,1043.4,1723.3,1045.3z"/>
	<path class="st12" d="M1728.8,1034.4c0,3.3-2.7,6-6,6s-6-2.7-6-6s2.7-6,6-6C1726.1,1028.4,1728.8,1031.1,1728.8,1034.4z"/>
	<path class="st12" d="M1731.3,1016.1c0,4-3.2,7.2-7.2,7.2s-7.2-3.2-7.2-7.2s3.2-7.2,7.2-7.2
		C1728.1,1008.9,1731.3,1012.1,1731.3,1016.1z"/>
	<path class="st12" d="M1744.4,1030.4c0,2.9-2.4,5.3-5.3,5.3s-5.3-2.4-5.3-5.3s2.4-5.3,5.3-5.3S1744.4,1027.4,1744.4,1030.4z"/>
	<path class="st12" d="M1741.5,1049c0,2.8-2.3,5.1-5.1,5.1c-2.8,0-5.1-2.3-5.1-5.1c0-2.8,2.3-5.1,5.1-5.1
		C1739.2,1044,1741.5,1046.2,1741.5,1049z"/>
	<path class="st12" d="M1729.9,1060c0,1.6-1.3,2.9-2.9,2.9s-2.9-1.3-2.9-2.9s1.3-2.9,2.9-2.9S1729.9,1058.4,1729.9,1060z"/>
</g>
<g>
	<path class="st12" d="M212.2,1018.2c0,8-6.5,14.5-14.5,14.5s-14.5-6.5-14.5-14.5s6.5-14.5,14.5-14.5
		C205.7,1003.7,212.2,1010.2,212.2,1018.2z"/>
	<path class="st12" d="M235,1012.4c0,4.6-3.7,8.2-8.2,8.2s-8.2-3.7-8.2-8.2s3.7-8.2,8.2-8.2S235,1007.9,235,1012.4z"/>
	<path class="st12" d="M242,1038.1c0,8.2-6.7,14.9-14.9,14.9s-14.9-6.7-14.9-14.9c0-8.2,6.7-14.9,14.9-14.9S242,1029.9,242,1038.1z"
		/>
	<path class="st12" d="M208.1,1045.1c0,4.3-3.5,7.8-7.8,7.8s-7.8-3.5-7.8-7.8s3.5-7.8,7.8-7.8
		C204.6,1037.3,208.1,1040.8,208.1,1045.1z"/>
	<path class="st12" d="M181,1027.8c0,8.5-6.9,15.3-15.3,15.3c-8.5,0-15.3-6.9-15.3-15.3c0-8.5,6.9-15.3,15.3-15.3
		C174.1,1012.4,181,1019.3,181,1027.8z"/>
	<path class="st12" d="M183.9,1046.8c0,2-1.7,3.7-3.7,3.7s-3.7-1.7-3.7-3.7s1.7-3.7,3.7-3.7C182.3,1043.1,183.9,1044.7,183.9,1046.8
		z"/>
	<path class="st12" d="M271,1018.2c0,8-6.5,14.5-14.5,14.5s-14.5-6.5-14.5-14.5s6.5-14.5,14.5-14.5
		C264.5,1003.7,271,1010.2,271,1018.2z"/>
	<path class="st12" d="M262.7,1045c0,4.2-3.4,7.7-7.7,7.7c-4.2,0-7.7-3.4-7.7-7.7s3.4-7.7,7.7-7.7
		C259.3,1037.3,262.7,1040.7,262.7,1045z"/>
	<path class="st12" d="M274.8,1037.7c0,2.7-2.2,4.9-4.9,4.9c-2.7,0-4.9-2.2-4.9-4.9c0-2.7,2.2-4.9,4.9-4.9
		C272.6,1032.8,274.8,1035,274.8,1037.7z"/>
	<path class="st12" d="M309.6,1029.7c0,8.5-6.9,15.4-15.4,15.4s-15.4-6.9-15.4-15.4s6.9-15.4,15.4-15.4
		C302.7,1014.2,309.6,1021.1,309.6,1029.7z"/>
	<path class="st12" d="M285.2,1010.1c0,3.6-2.9,6.4-6.4,6.4c-3.6,0-6.4-2.9-6.4-6.4c0-3.6,2.9-6.4,6.4-6.4
		C282.3,1003.7,285.2,1006.6,285.2,1010.1z"/>
	<path class="st12" d="M291.6,1055.9c0,6-4.9,10.8-10.8,10.8c-6,0-10.8-4.9-10.8-10.8c0-6,4.9-10.8,10.8-10.8
		S291.6,1050,291.6,1055.9z"/>
	<path class="st12" d="M220.4,1056.7c0,2.3-1.8,4.1-4.1,4.1s-4.1-1.8-4.1-4.1s1.8-4.1,4.1-4.1
		C218.5,1052.6,220.4,1054.5,220.4,1056.7z"/>
	<path class="st12" d="M253.6,1064.6c0,5.2-4.2,9.3-9.3,9.3c-5.2,0-9.3-4.2-9.3-9.3c0-5.2,4.2-9.3,9.3-9.3
		C249.5,1055.2,253.6,1059.4,253.6,1064.6z"/>
	<path class="st12" d="M265.1,1061c0,2-1.6,3.5-3.5,3.5c-2,0-3.5-1.6-3.5-3.5c0-2,1.6-3.5,3.5-3.5S265.1,1059.1,265.1,1061z"/>
	<path class="st12" d="M200.3,1064.9c0,5.3-4.3,9.7-9.7,9.7c-5.3,0-9.7-4.3-9.7-9.7c0-5.3,4.3-9.7,9.7-9.7
		C196,1055.2,200.3,1059.6,200.3,1064.9z"/>
	<path class="st12" d="M173.8,1055.6c0,5.8-4.7,10.5-10.5,10.5s-10.5-4.7-10.5-10.5s4.7-10.5,10.5-10.5S173.8,1049.8,173.8,1055.6z"
		/>
	<path class="st12" d="M152.8,1042.2c0,3.6-2.9,6.6-6.6,6.6c-3.6,0-6.6-2.9-6.6-6.6c0-3.6,2.9-6.6,6.6-6.6
		C149.8,1035.6,152.8,1038.5,152.8,1042.2z"/>
	<path class="st12" d="M146.6,1020.6c0,5.8-4.7,10.5-10.5,10.5s-10.5-4.7-10.5-10.5c0-5.8,4.7-10.5,10.5-10.5
		C141.9,1010.1,146.6,1014.8,146.6,1020.6z"/>
	<path class="st12" d="M155.5,1007.4c0,2-1.7,3.7-3.7,3.7s-3.7-1.7-3.7-3.7s1.7-3.7,3.7-3.7S155.5,1005.4,155.5,1007.4z"/>
	<path class="st12" d="M177.4,1006.9c0,1.8-1.4,3.2-3.2,3.2s-3.2-1.4-3.2-3.2s1.4-3.2,3.2-3.2S177.4,1005.1,177.4,1006.9z"/>
	<path class="st12" d="M300.9,1008.4c0,2.6-2.1,4.6-4.6,4.6c-2.6,0-4.6-2.1-4.6-4.6c0-2.6,2.1-4.6,4.6-4.6
		C298.8,1003.7,300.9,1005.8,300.9,1008.4z"/>
	<path class="st12" d="M312.5,1056.7c0,4.4-3.5,7.9-7.9,7.9s-7.9-3.5-7.9-7.9s3.5-7.9,7.9-7.9
		C308.9,1048.7,312.5,1052.3,312.5,1056.7z"/>
	<path class="st12" d="M319.1,1043.4c0,1.8-1.5,3.3-3.3,3.3s-3.3-1.5-3.3-3.3s1.5-3.3,3.3-3.3S319.1,1041.6,319.1,1043.4z"/>
	<path class="st12" d="M324.6,1032.6c0,3.3-2.7,6-6,6s-6-2.7-6-6s2.7-6,6-6S324.6,1029.3,324.6,1032.6z"/>
	<path class="st12" d="M327.1,1014.3c0,4-3.2,7.2-7.2,7.2s-7.2-3.2-7.2-7.2s3.2-7.2,7.2-7.2S327.1,1010.3,327.1,1014.3z"/>
	<path class="st12" d="M340.3,1028.5c0,2.9-2.4,5.3-5.3,5.3s-5.3-2.4-5.3-5.3s2.4-5.3,5.3-5.3S340.3,1025.6,340.3,1028.5z"/>
	<path class="st12" d="M337.3,1047.2c0,2.8-2.3,5.1-5.1,5.1c-2.8,0-5.1-2.3-5.1-5.1c0-2.8,2.3-5.1,5.1-5.1
		S337.3,1044.4,337.3,1047.2z"/>
	<path class="st12" d="M325.7,1058.1c0,1.6-1.3,2.9-2.9,2.9s-2.9-1.3-2.9-2.9s1.3-2.9,2.9-2.9
		C324.4,1055.2,325.7,1056.5,325.7,1058.1z"/>
</g>
<rect x="283.1" y="717.3" class="st17" width="399.8" height="6.3"/>
<rect x="283.1" y="723.7" class="st9" width="399.8" height="41.6"/>
<rect x="283.1" y="765.2" class="st11" width="399.8" height="81.8"/>
<rect x="1841" y="863.9" class="st12" width="30.2" height="86.1"/>
<path class="st24" d="M1847.2,902.1c-15.2,0-27.5-12.3-27.5-27.5"/>
<path class="st13" d="M1857.8,724.3h-4.6c-26.2,0-47.5,21.3-47.5,47.5v96h0.1v13.4c0,3,2.5,5.5,5.5,5.5s5.5-2.5,5.5-5.5V880
	c0-3,2.5-5.5,5.5-5.5s5.5,2.5,5.5,5.5v4.2c0,3,2.5,5.5,5.5,5.5s5.5-2.5,5.5-5.5v-7c0-3,2.5-5.5,5.5-5.5s5.5,2.5,5.5,5.5v3.7
	c0,3,2.5,5.5,5.5,5.5s5.5-2.5,5.5-5.5v1.4c0-3,2.5-5.5,5.5-5.5s5.5,2.5,5.5,5.5v-1c0,3,2.5,5.5,5.5,5.5s5.5-2.5,5.5-5.5V880
	c0-3,2.5-5.5,5.5-5.5s5.5,2.5,5.5,5.5v4.2c0,3,2.5,5.5,5.5,5.5s5.5-2.5,5.5-5.5v-7c0-0.5,0.1-1,0.2-1.5v-8v-0.8v-95.3
	C1905.3,745.6,1884,724.3,1857.8,724.3z"/>
<path class="st10" d="M1867.4,927.3c0,1.2-1,2.2-2.2,2.2l0,0c-1.2,0-2.2-1-2.2-2.2V892c0-1.2,1-2.2,2.2-2.2l0,0c1.2,0,2.2,1,2.2,2.2
	V927.3z"/>
<rect x="84.2" y="847.8" class="st12" width="36" height="102.4"/>
<path class="st24" d="M91.5,893.2c-18.1,0-32.8-14.7-32.8-32.8"/>
<path class="st13" d="M104.1,681.7h-5.5c-31.2,0-56.5,25.3-56.5,56.5v114.2h0.1v16c0,3.6,2.9,6.6,6.6,6.6c3.6,0,6.6-2.9,6.6-6.6V867
	c0-3.6,2.9-6.6,6.6-6.6c3.6,0,6.6,2.9,6.6,6.6v5c0,3.6,2.9,6.6,6.6,6.6c3.6,0,6.6-2.9,6.6-6.6v-8.3c0-3.6,2.9-6.6,6.6-6.6
	c3.6,0,6.6,2.9,6.6,6.6v4.4c0,3.6,2.9,6.6,6.6,6.6c3.6,0,6.6-2.9,6.6-6.6v1.6c0-3.6,2.9-6.6,6.6-6.6c3.6,0,6.6,2.9,6.6,6.6v-1.2
	c0,3.6,2.9,6.6,6.6,6.6c3.6,0,6.6-2.9,6.6-6.6V867c0-3.6,2.9-6.6,6.6-6.6c3.6,0,6.6,2.9,6.6,6.6v5c0,3.6,2.9,6.6,6.6,6.6
	c3.6,0,6.6-2.9,6.6-6.6v-8.3c0-0.6,0.1-1.2,0.2-1.7v-9.5v-0.9V738.3C160.7,707.1,135.4,681.7,104.1,681.7z"/>
<path class="st10" d="M115.6,923.2c0,1.4-1.1,2.6-2.6,2.6l0,0c-1.4,0-2.6-1.1-2.6-2.6v-42c0-1.4,1.1-2.6,2.6-2.6l0,0
	c1.4,0,2.6,1.1,2.6,2.6V923.2z"/>
<path class="st29" d="M933,674.8c0.7,1.1,0.4,2.5-0.7,3.2l-5.8,3.7c-1.1,0.7-2.5,0.4-3.2-0.7l0,0c-0.7-1.1-0.4-2.5,0.7-3.2l5.8-3.7
	C930.9,673.3,932.4,673.7,933,674.8L933,674.8z"/>
<path class="st29" d="M990.9,678.3c-0.5,1.2-1.9,1.8-3.1,1.3l-6.4-2.6c-1.2-0.5-1.8-1.9-1.3-3.1l0,0c0.5-1.2,1.9-1.8,3.1-1.3
	l6.4,2.6C990.8,675.7,991.3,677.1,990.9,678.3L990.9,678.3z"/>
<path class="st30" d="M1828.6,42.7c0,116.7-94.6,211.3-211.3,211.3c-116.7,0-211.3-94.6-211.3-211.3c0-14.1,1.4-27.9,4-41.2h414.7
	C1827.2,14.8,1828.6,28.6,1828.6,42.7z"/>
<path class="st31" d="M452,259.4h-53.4c-4.5,0-8.1-3.3-8.8-7.6c0.1-0.4,0.1-0.9,0.1-1.3c0-0.4,0-0.9-0.1-1.3
	c0.6-4.3,4.3-7.6,8.8-7.6h52.7c4.9,0,8.9-4,8.9-8.9s-4-8.9-8.9-8.9H267.7c-4.9,0-8.9,4-8.9,8.9s4,8.9,8.9,8.9h22.6
	c4.5,0,8.1,3.3,8.8,7.6c-0.1,0.4-0.1,0.9-0.1,1.3c0,0.4,0,0.9,0.1,1.3c-0.6,4.3-4.3,7.6-8.8,7.6h-21.9c-4.9,0-8.9,4-8.9,8.9
	s4,8.9,8.9,8.9h3c4.9,0,8.9,4,8.9,8.9s-4,8.9-8.9,8.9h-13.7c-4.9,0-8.9,4-8.9,8.9s4,8.9,8.9,8.9h183.7c4.9,0,8.9-4,8.9-8.9
	s-4-8.9-8.9-8.9h-23.7c-4.9,0-8.9-4-8.9-8.9s4-8.9,8.9-8.9H452c4.9,0,8.9-4,8.9-8.9S456.9,259.4,452,259.4z"/>
<path class="st31" d="M1878.5,475.4h-53.4c-4.5,0-8.1-3.3-8.8-7.6c0.1-0.4,0.1-0.9,0.1-1.3s0-0.9-0.1-1.3c0.6-4.3,4.3-7.6,8.8-7.6
	h52.7c4.9,0,8.9-4,8.9-8.9s-4-8.9-8.9-8.9h-183.7c-4.9,0-8.9,4-8.9,8.9s4,8.9,8.9,8.9h22.6c4.5,0,8.1,3.3,8.8,7.6
	c-0.1,0.4-0.1,0.9-0.1,1.3s0,0.9,0.1,1.3c-0.6,4.3-4.3,7.6-8.8,7.6h-21.9c-4.9,0-8.9,4-8.9,8.9s4,8.9,8.9,8.9h3c4.9,0,8.9,4,8.9,8.9
	s-4,8.9-8.9,8.9h-13.7c-4.9,0-8.9,4-8.9,8.9c0,4.9,4,8.9,8.9,8.9h183.7c4.9,0,8.9-4,8.9-8.9s-4-8.9-8.9-8.9h-23.7
	c-4.9,0-8.9-4-8.9-8.9s4-8.9,8.9-8.9h34.4c4.9,0,8.9-4,8.9-8.9S1883.4,475.4,1878.5,475.4z"/>
<g>
	<polygon class="st30" points="667.9,805.1 602.8,804.8 635.5,772.4 	"/>
	<polygon class="st32" points="667.9,805.1 635.2,837.5 602.8,804.8 	"/>
	<path class="st33" d="M635.4,780.7l-24.3,24.1l24.1,24.3l24.3-24.1L635.4,780.7z M648.1,805.7h-8.6c-0.1,0.6-0.3,1.1-0.7,1.6l4,4
		c0.3,0.3,0.3,0.8,0,1.1s-0.8,0.3-1.1,0l-4-4c-0.5,0.3-1,0.6-1.6,0.7v8.6c0,0.4-0.3,0.8-0.8,0.8c-0.4,0-0.8-0.3-0.8-0.8v-8.6
		c-0.6-0.1-1.1-0.3-1.6-0.7l-4,4c-0.3,0.3-0.8,0.3-1.1,0s-0.3-0.8,0-1.1l4-4c-0.3-0.5-0.6-1-0.7-1.6h-5.7h-3c-0.4,0-0.8-0.3-0.8-0.8
		c0-0.4,0.3-0.8,0.8-0.8h3h5.6c0.1-0.6,0.3-1.1,0.7-1.6l-4-4c-0.3-0.3-0.3-0.8,0-1.1s0.8-0.3,1.1,0l4,4c0.5-0.3,1-0.6,1.6-0.7v-8.6
		c0-0.4,0.3-0.8,0.8-0.8c0.4,0,0.8,0.3,0.8,0.8v8.6c0.6,0.1,1.1,0.3,1.6,0.7l4-4c0.3-0.3,0.8-0.3,1.1,0s0.3,0.8,0,1.1l-4,4
		c0.3,0.5,0.6,1,0.7,1.6h8.6c0.4,0,0.8,0.3,0.8,0.8C648.9,805.4,648.5,805.7,648.1,805.7z"/>
</g>
<polygon class="st20" points="362.2,804.9 297.1,804.7 329.8,772.2 "/>
<polygon class="st19" points="362.2,804.9 329.5,837.4 297.1,804.7 "/>
<path class="st34" d="M329.8,780.6l-24.3,24.1l24.1,24.3l24.3-24.1L329.8,780.6z M342.4,805.6h-8.6c-0.1,0.6-0.3,1.1-0.7,1.6l4,4
	c0.3,0.3,0.3,0.8,0,1.1s-0.8,0.3-1.1,0l-4-4c-0.5,0.3-1,0.6-1.6,0.7v8.6c0,0.4-0.3,0.8-0.8,0.8c-0.4,0-0.8-0.3-0.8-0.8V809
	c-0.6-0.1-1.1-0.3-1.6-0.7l-4,4c-0.3,0.3-0.8,0.3-1.1,0c-0.3-0.3-0.3-0.8,0-1.1l4-4c-0.3-0.5-0.6-1-0.7-1.6h-5.7h-3
	c-0.4,0-0.8-0.3-0.8-0.8c0-0.4,0.3-0.8,0.8-0.8h3h5.6c0.1-0.6,0.3-1.1,0.7-1.6l-4-4c-0.3-0.3-0.3-0.8,0-1.1s0.8-0.3,1.1,0l4,4
	c0.5-0.3,1-0.6,1.6-0.7V792c0-0.4,0.3-0.8,0.8-0.8c0.4,0,0.8,0.3,0.8,0.8v8.6c0.6,0.1,1.1,0.3,1.6,0.7l4-4c0.3-0.3,0.8-0.3,1.1,0
	c0.3,0.3,0.3,0.8,0,1.1l-4,4c0.3,0.5,0.6,1,0.7,1.6h8.6c0.4,0,0.8,0.3,0.8,0.8C343.2,805.3,342.8,805.6,342.4,805.6z"/>
<path class="st31" d="M550,29.7c0,13.8,11.1,24.9,24.9,24.9h66.3c13.7,0,24.9,11.1,24.9,24.9c0,13.7-11.1,24.9-24.9,24.9H126.8
	c-13.7,0-24.9-11.1-24.9-24.9c0-13.7,11.1-24.9,24.9-24.9h38.4c13.7,0,24.9-11.1,24.9-24.9c0-13.7-11.1-24.9-24.9-24.9h-8.4
	c-4.5,0-8.8-1.2-12.5-3.4h539.4c-3.7,2.1-7.9,3.4-12.5,3.4h-96.3C561.2,4.9,550,16,550,29.7z"/>
<path class="st31" d="M857.4,563.3H804c-4.5,0-8.1-3.3-8.8-7.6c0.1-0.4,0.1-0.9,0.1-1.3c0-0.4,0-0.9-0.1-1.3
	c0.6-4.3,4.3-7.6,8.8-7.6h52.7c4.9,0,8.9-4,8.9-8.9s-4-8.9-8.9-8.9H673.1c-4.9,0-8.9,4-8.9,8.9s4,8.9,8.9,8.9h22.6
	c4.5,0,8.1,3.3,8.8,7.6c-0.1,0.4-0.1,0.9-0.1,1.3c0,0.4,0,0.9,0.1,1.3c-0.6,4.3-4.3,7.6-8.8,7.6h-21.9c-4.9,0-8.9,4-8.9,8.9
	s4,8.9,8.9,8.9h3c4.9,0,8.9,4,8.9,8.9s-4,8.9-8.9,8.9H663c-4.9,0-8.9,4-8.9,8.9s4,8.9,8.9,8.9h183.7c4.9,0,8.9-4,8.9-8.9
	s-4-8.9-8.9-8.9H823c-4.9,0-8.9-4-8.9-8.9s4-8.9,8.9-8.9h34.4c4.9,0,8.9-4,8.9-8.9C866.3,567.3,862.3,563.3,857.4,563.3z"/>
<g>
	<g>
		<g>
			<polygon class="st30" points="106.9,1038.1 41.7,1037.9 74.4,1005.4 			"/>
			<polygon class="st32" points="106.9,1038.1 74.2,1070.6 41.7,1037.9 			"/>
			<path class="st33" d="M74.4,1013.8l-24.3,24.1l24.1,24.3l24.3-24.1L74.4,1013.8z M87.1,1038.8h-8.6c-0.1,0.6-0.3,1.1-0.7,1.6l4,4
				c0.3,0.3,0.3,0.8,0,1.1c-0.3,0.3-0.8,0.3-1.1,0l-4-4c-0.5,0.3-1,0.6-1.6,0.7v8.6c0,0.4-0.3,0.8-0.8,0.8c-0.4,0-0.8-0.3-0.8-0.8
				v-8.6c-0.6-0.1-1.1-0.3-1.6-0.7l-4,4c-0.3,0.3-0.8,0.3-1.1,0c-0.3-0.3-0.3-0.8,0-1.1l4-4c-0.3-0.5-0.6-1-0.7-1.6h-5.7h-3
				c-0.4,0-0.8-0.3-0.8-0.8c0-0.4,0.3-0.8,0.8-0.8h3H70c0.1-0.6,0.3-1.1,0.7-1.6l-4-4c-0.3-0.3-0.3-0.8,0-1.1c0.3-0.3,0.8-0.3,1.1,0
				l4,4c0.5-0.3,1-0.6,1.6-0.7v-8.6c0-0.4,0.3-0.8,0.8-0.8c0.4,0,0.8,0.3,0.8,0.8v8.6c0.6,0.1,1.1,0.3,1.6,0.7l4-4
				c0.3-0.3,0.8-0.3,1.1,0c0.3,0.3,0.3,0.8,0,1.1l-4,4c0.3,0.5,0.6,1,0.7,1.6H87c0.4,0,0.8,0.3,0.8,0.8
				C87.8,1038.4,87.5,1038.8,87.1,1038.8z"/>
		</g>
	</g>
</g>
<g>
	<g>
		<g>
			<polygon class="st30" points="425.9,1039.1 360.7,1038.9 393.5,1006.4 			"/>
			<polygon class="st32" points="425.9,1039.1 393.2,1071.6 360.7,1038.9 			"/>
			<path class="st33" d="M393.4,1014.8l-24.3,24.1l24.1,24.3l24.3-24.1L393.4,1014.8z M406.1,1039.8h-8.6c-0.1,0.6-0.3,1.1-0.7,1.6
				l4,4c0.3,0.3,0.3,0.8,0,1.1c-0.3,0.3-0.8,0.3-1.1,0l-4-4c-0.5,0.3-1,0.6-1.6,0.7v8.6c0,0.4-0.3,0.8-0.8,0.8
				c-0.4,0-0.8-0.3-0.8-0.8v-8.6c-0.6-0.1-1.1-0.3-1.6-0.7l-4,4c-0.3,0.3-0.8,0.3-1.1,0c-0.3-0.3-0.3-0.8,0-1.1l4-4
				c-0.3-0.5-0.6-1-0.7-1.6h-5.7h-3c-0.4,0-0.8-0.3-0.8-0.8c0-0.4,0.3-0.8,0.8-0.8h3h5.6c0.1-0.6,0.3-1.1,0.7-1.6l-4-4
				c-0.3-0.3-0.3-0.8,0-1.1c0.3-0.3,0.8-0.3,1.1,0l4,4c0.5-0.3,1-0.6,1.6-0.7v-8.6c0-0.4,0.3-0.8,0.8-0.8c0.4,0,0.8,0.3,0.8,0.8v8.6
				c0.6,0.1,1.1,0.3,1.6,0.7l4-4c0.3-0.3,0.8-0.3,1.1,0c0.3,0.3,0.3,0.8,0,1.1l-4,4c0.3,0.5,0.6,1,0.7,1.6h8.6
				c0.4,0,0.8,0.3,0.8,0.8C406.9,1039.4,406.5,1039.8,406.1,1039.8z"/>
		</g>
	</g>
</g>
<g>
	<g>
		<g>
			<polygon class="st30" points="760.2,1037.4 695,1037.1 727.8,1004.7 			"/>
			<polygon class="st32" points="760.2,1037.4 727.5,1069.9 695,1037.1 			"/>
			<path class="st33" d="M727.7,1013.1l-24.3,24.1l24.1,24.3l24.3-24.1L727.7,1013.1z M740.4,1038.1h-8.6c-0.1,0.6-0.3,1.1-0.7,1.6
				l4,4c0.3,0.3,0.3,0.8,0,1.1c-0.3,0.3-0.8,0.3-1.1,0l-4-4c-0.5,0.3-1,0.6-1.6,0.7v8.6c0,0.4-0.3,0.8-0.8,0.8
				c-0.4,0-0.8-0.3-0.8-0.8v-8.6c-0.6-0.1-1.1-0.3-1.6-0.7l-4,4c-0.3,0.3-0.8,0.3-1.1,0s-0.3-0.8,0-1.1l4-4c-0.3-0.5-0.6-1-0.7-1.6
				h-5.7h-3c-0.4,0-0.8-0.3-0.8-0.8c0-0.4,0.3-0.8,0.8-0.8h3h5.6c0.1-0.6,0.3-1.1,0.7-1.6l-4-4c-0.3-0.3-0.3-0.8,0-1.1
				c0.3-0.3,0.8-0.3,1.1,0l4,4c0.5-0.3,1-0.6,1.6-0.7v-8.6c0-0.4,0.3-0.8,0.8-0.8c0.4,0,0.8,0.3,0.8,0.8v8.6
				c0.6,0.1,1.1,0.3,1.6,0.7l4-4c0.3-0.3,0.8-0.3,1.1,0s0.3,0.8,0,1.1l-4,4c0.3,0.5,0.6,1,0.7,1.6h8.6c0.4,0,0.8,0.3,0.8,0.8
				C741.2,1037.7,740.8,1038.1,740.4,1038.1z"/>
		</g>
	</g>
</g>
<g>
	<g>
		<g>
			<polygon class="st30" points="1866,1037.6 1800.8,1037.3 1833.6,1004.8 			"/>
			<polygon class="st32" points="1866,1037.6 1833.3,1070 1800.8,1037.3 			"/>
			<path class="st33" d="M1833.5,1013.2l-24.3,24.1l24.1,24.3l24.3-24.1L1833.5,1013.2z M1846.2,1038.2h-8.6
				c-0.1,0.6-0.3,1.1-0.7,1.6l4,4c0.3,0.3,0.3,0.8,0,1.1c-0.3,0.3-0.8,0.3-1.1,0l-4-4c-0.5,0.3-1,0.6-1.6,0.7v8.6
				c0,0.4-0.3,0.8-0.8,0.8c-0.4,0-0.8-0.3-0.8-0.8v-8.6c-0.6-0.1-1.1-0.3-1.6-0.7l-4,4c-0.3,0.3-0.8,0.3-1.1,0s-0.3-0.8,0-1.1l4-4
				c-0.3-0.5-0.6-1-0.7-1.6h-5.7h-3c-0.4,0-0.8-0.3-0.8-0.8c0-0.4,0.3-0.8,0.8-0.8h3h5.7c0.1-0.6,0.3-1.1,0.7-1.6l-4-4
				c-0.3-0.3-0.3-0.8,0-1.1c0.3-0.3,0.8-0.3,1.1,0l4,4c0.5-0.3,1-0.6,1.6-0.7v-8.6c0-0.4,0.3-0.8,0.8-0.8c0.4,0,0.8,0.3,0.8,0.8v8.6
				c0.6,0.1,1.2,0.3,1.6,0.7l4-4c0.3-0.3,0.8-0.3,1.1,0s0.3,0.8,0,1.1l-4,4c0.3,0.5,0.6,1,0.7,1.6h8.6c0.4,0,0.8,0.3,0.8,0.8
				C1847,1037.9,1846.6,1038.2,1846.2,1038.2z"/>
		</g>
	</g>
</g>
<path class="st20" d="M951,808c0,3.6-2.9,6.5-6.5,6.5h-17c-3.6,0-6.5-2.9-6.5-6.5l0,0c0-3.6,2.9-6.5,6.5-6.5h17
	C948.1,801.6,951,804.5,951,808L951,808z"/>
<path class="st35" d="M990.9,808c0,3.6-2.9,6.5-6.5,6.5h-17c-3.6,0-6.5-2.9-6.5-6.5l0,0c0-3.6,2.9-6.5,6.5-6.5h17
	C988,801.6,990.9,804.5,990.9,808L990.9,808z"/>
<path class="st36" d="M951,824.1c0,3.6-2.9,6.5-6.5,6.5h-17c-3.6,0-6.5-2.9-6.5-6.5l0,0c0-3.6,2.9-6.5,6.5-6.5h17
	C948.1,817.7,951,820.6,951,824.1L951,824.1z"/>
<path class="st18" d="M990.9,824.1c0,3.6-2.9,6.5-6.5,6.5h-17c-3.6,0-6.5-2.9-6.5-6.5l0,0c0-3.6,2.9-6.5,6.5-6.5h17
	C988,817.7,990.9,820.6,990.9,824.1L990.9,824.1z"/>
<path class="st37" d="M951,841.5c0,3.6-2.9,6.5-6.5,6.5h-17c-3.6,0-6.5-2.9-6.5-6.5l0,0c0-3.6,2.9-6.5,6.5-6.5h17
	C948.1,835.1,951,838,951,841.5L951,841.5z"/>
<path class="st19" d="M990.9,841.5c0,3.6-2.9,6.5-6.5,6.5h-17c-3.6,0-6.5-2.9-6.5-6.5l0,0c0-3.6,2.9-6.5,6.5-6.5h17
	C988,835.1,990.9,838,990.9,841.5L990.9,841.5z"/>
<path class="st9" d="M1012.6,789.5c-4.5-0.7-7.7-4.8-7-9.4l0,0c0.7-4.5,4.8-7.7,9.4-7l42.1,6.1c4.5,0.7,7.7,4.8,7,9.4l0,0
	c-0.7,4.5-4.8,7.7-9.4,7L1012.6,789.5z"/>
<g>
	<g>
		<g>
			<polygon class="st30" points="1100,1040.4 1034.8,1040.1 1067.6,1007.6 			"/>
			<polygon class="st32" points="1100,1040.4 1067.3,1072.8 1034.8,1040.1 			"/>
			<path class="st33" d="M1067.5,1016l-24.3,24.1l24.1,24.3l24.3-24.1L1067.5,1016z M1080.2,1041h-8.6c-0.1,0.6-0.3,1.1-0.7,1.6l4,4
				c0.3,0.3,0.3,0.8,0,1.1c-0.3,0.3-0.8,0.3-1.1,0l-4-4c-0.5,0.3-1,0.6-1.6,0.7v8.6c0,0.4-0.3,0.8-0.8,0.8s-0.8-0.3-0.8-0.8v-8.6
				c-0.6-0.1-1.1-0.3-1.6-0.7l-4,4c-0.3,0.3-0.8,0.3-1.1,0s-0.3-0.8,0-1.1l4-4c-0.3-0.5-0.6-1-0.7-1.6h-5.7h-3
				c-0.4,0-0.8-0.3-0.8-0.8c0-0.4,0.3-0.8,0.8-0.8h3h5.6c0.1-0.6,0.3-1.1,0.7-1.6l-4-4c-0.3-0.3-0.3-0.8,0-1.1
				c0.3-0.3,0.8-0.3,1.1,0l4,4c0.5-0.3,1-0.6,1.6-0.7v-8.6c0-0.4,0.3-0.8,0.8-0.8s0.8,0.3,0.8,0.8v8.6c0.6,0.1,1.1,0.3,1.6,0.7l4-4
				c0.3-0.3,0.8-0.3,1.1,0s0.3,0.8,0,1.1l-4,4c0.3,0.5,0.6,1,0.7,1.6h8.6c0.4,0,0.8,0.3,0.8,0.8
				C1081,1040.7,1080.6,1041,1080.2,1041z"/>
		</g>
	</g>
</g>
<g>
	<g>
		<g>
			<polygon class="st30" points="1491.4,1037.6 1426.3,1037.3 1459,1004.8 			"/>
			<polygon class="st32" points="1491.4,1037.6 1458.7,1070 1426.3,1037.3 			"/>
			<path class="st33" d="M1459,1013.2l-24.3,24.1l24.1,24.3l24.3-24.1L1459,1013.2z M1471.6,1038.2h-8.6c-0.1,0.6-0.3,1.1-0.7,1.6
				l4,4c0.3,0.3,0.3,0.8,0,1.1c-0.3,0.3-0.8,0.3-1.1,0l-4-4c-0.5,0.3-1,0.6-1.6,0.7v8.6c0,0.4-0.3,0.8-0.8,0.8s-0.8-0.3-0.8-0.8
				v-8.6c-0.6-0.1-1.1-0.3-1.6-0.7l-4,4c-0.3,0.3-0.8,0.3-1.1,0s-0.3-0.8,0-1.1l4-4c-0.3-0.5-0.6-1-0.7-1.6h-5.7h-3
				c-0.4,0-0.8-0.3-0.8-0.8c0-0.4,0.3-0.8,0.8-0.8h3h5.6c0.1-0.6,0.3-1.1,0.7-1.6l-4-4c-0.3-0.3-0.3-0.8,0-1.1
				c0.3-0.3,0.8-0.3,1.1,0l4,4c0.5-0.3,1-0.6,1.6-0.7v-8.6c0-0.4,0.3-0.8,0.8-0.8s0.8,0.3,0.8,0.8v8.6c0.6,0.1,1.1,0.3,1.6,0.7l4-4
				c0.3-0.3,0.8-0.3,1.1,0s0.3,0.8,0,1.1l-4,4c0.3,0.5,0.6,1,0.7,1.6h8.6c0.4,0,0.8,0.3,0.8,0.8
				C1472.4,1037.9,1472,1038.2,1471.6,1038.2z"/>
		</g>
	</g>
</g>
<g>
	<path class="st12" d="M460.1,786.2c0,8-6.5,14.5-14.5,14.5s-14.5-6.5-14.5-14.5s6.5-14.5,14.5-14.5
		C453.6,771.6,460.1,778.2,460.1,786.2z"/>
	<path class="st12" d="M482.9,780.4c0,4.5-3.7,8.2-8.2,8.2s-8.2-3.7-8.2-8.2c0-4.6,3.7-8.2,8.2-8.2
		C479.2,772.1,482.9,775.8,482.9,780.4z"/>
	<path class="st12" d="M489.9,806c0,8.2-6.7,14.9-14.9,14.9c-8.2,0-14.9-6.7-14.9-14.9s6.7-14.9,14.9-14.9
		C483.2,791.2,489.9,797.8,489.9,806z"/>
	<path class="st12" d="M456,813c0,4.3-3.5,7.8-7.8,7.8s-7.8-3.5-7.8-7.8s3.5-7.8,7.8-7.8S456,808.7,456,813z"/>
	<path class="st12" d="M428.9,795.7c0,8.5-6.9,15.3-15.3,15.3c-8.5,0-15.3-6.9-15.3-15.3c0-8.5,6.9-15.3,15.3-15.3
		C422.1,780.4,428.9,787.2,428.9,795.7z"/>
	<path class="st12" d="M431.9,814.7c0,2-1.7,3.7-3.7,3.7s-3.7-1.7-3.7-3.7s1.7-3.7,3.7-3.7C430.2,811,431.9,812.7,431.9,814.7z"/>
	<path class="st12" d="M519,786.2c0,8-6.5,14.5-14.5,14.5s-14.5-6.5-14.5-14.5s6.5-14.5,14.5-14.5C512.5,771.6,519,778.2,519,786.2z
		"/>
	<path class="st12" d="M510.7,812.9c0,4.2-3.4,7.7-7.7,7.7c-4.2,0-7.7-3.4-7.7-7.7s3.4-7.7,7.7-7.7
		C507.2,805.2,510.7,808.6,510.7,812.9z"/>
	<path class="st12" d="M522.7,805.6c0,2.7-2.2,4.9-4.9,4.9s-4.9-2.2-4.9-4.9s2.2-4.9,4.9-4.9C520.5,800.7,522.7,802.9,522.7,805.6z"
		/>
	<path class="st12" d="M557.5,797.6c0,8.5-6.9,15.4-15.4,15.4s-15.4-6.9-15.4-15.4s6.9-15.4,15.4-15.4
		C550.6,782.2,557.5,789.1,557.5,797.6z"/>
	<path class="st12" d="M533.1,778.1c0,3.6-2.9,6.4-6.4,6.4c-3.6,0-6.4-2.9-6.4-6.4s2.9-6.4,6.4-6.4
		C530.2,771.6,533.1,774.5,533.1,778.1z"/>
	<path class="st12" d="M539.5,823.9c0,6-4.9,10.8-10.8,10.8c-6,0-10.8-4.9-10.8-10.8c0-6,4.9-10.8,10.8-10.8
		C534.6,813,539.5,817.9,539.5,823.9z"/>
	<path class="st12" d="M468.3,824.6c0,2.3-1.8,4.1-4.1,4.1c-2.3,0-4.1-1.8-4.1-4.1s1.8-4.1,4.1-4.1
		C466.5,820.6,468.3,822.4,468.3,824.6z"/>
	<path class="st12" d="M501.6,832.5c0,5.2-4.2,9.3-9.3,9.3s-9.3-4.2-9.3-9.3c0-5.2,4.2-9.3,9.3-9.3S501.6,827.3,501.6,832.5z"/>
	<path class="st12" d="M513,829c0,2-1.6,3.5-3.5,3.5c-2,0-3.5-1.6-3.5-3.5c0-2,1.6-3.5,3.5-3.5C511.4,825.4,513,827,513,829z"/>
	<path class="st12" d="M448.2,832.8c0,5.3-4.3,9.7-9.7,9.7c-5.3,0-9.7-4.3-9.7-9.7c0-5.3,4.3-9.7,9.7-9.7
		C443.9,823.2,448.2,827.5,448.2,832.8z"/>
	<path class="st12" d="M421.7,823.5c0,5.8-4.7,10.5-10.5,10.5s-10.5-4.7-10.5-10.5s4.7-10.5,10.5-10.5S421.7,817.7,421.7,823.5z"/>
	<path class="st12" d="M400.7,810.1c0,3.6-2.9,6.6-6.6,6.6c-3.6,0-6.6-2.9-6.6-6.6c0-3.6,2.9-6.6,6.6-6.6
		C397.7,803.5,400.7,806.5,400.7,810.1z"/>
	<path class="st12" d="M394.5,788.5c0,5.8-4.7,10.5-10.5,10.5s-10.5-4.7-10.5-10.5S378.2,778,384,778
		C389.8,778.1,394.5,782.8,394.5,788.5z"/>
	<path class="st12" d="M403.4,775.3c0,2-1.7,3.7-3.7,3.7s-3.7-1.7-3.7-3.7s1.7-3.7,3.7-3.7C401.8,771.6,403.4,773.3,403.4,775.3z"/>
	<path class="st12" d="M425.4,774.9c0,1.8-1.4,3.2-3.2,3.2c-1.8,0-3.2-1.4-3.2-3.2s1.4-3.2,3.2-3.2
		C423.9,771.6,425.4,773.1,425.4,774.9z"/>
	<path class="st12" d="M548.8,776.3c0,2.6-2.1,4.6-4.6,4.6c-2.6,0-4.6-2.1-4.6-4.6c0-2.6,2.1-4.6,4.6-4.6
		C546.7,771.6,548.8,773.7,548.8,776.3z"/>
	<path class="st12" d="M560.4,824.6c0,4.4-3.5,7.9-7.9,7.9s-7.9-3.5-7.9-7.9s3.5-7.9,7.9-7.9C556.9,816.7,560.4,820.2,560.4,824.6z"
		/>
	<path class="st12" d="M567.1,811.4c0,1.8-1.5,3.3-3.3,3.3s-3.3-1.5-3.3-3.3s1.5-3.3,3.3-3.3C565.6,808,567.1,809.5,567.1,811.4z"/>
	<path class="st12" d="M572.5,800.5c0,3.3-2.7,6-6,6s-6-2.7-6-6s2.7-6,6-6C569.9,794.6,572.5,797.2,572.5,800.5z"/>
	<path class="st12" d="M575.1,782.2c0,4-3.2,7.2-7.2,7.2s-7.2-3.2-7.2-7.2s3.2-7.2,7.2-7.2C571.8,775,575.1,778.3,575.1,782.2z"/>
	<path class="st12" d="M588.2,796.5c0,2.9-2.4,5.3-5.3,5.3c-2.9,0-5.3-2.4-5.3-5.3c0-2.9,2.4-5.3,5.3-5.3S588.2,793.5,588.2,796.5z"
		/>
	<path class="st12" d="M585.2,815.1c0,2.8-2.3,5.1-5.1,5.1s-5.1-2.3-5.1-5.1s2.3-5.1,5.1-5.1C582.9,810.1,585.2,812.3,585.2,815.1z"
		/>
	<path class="st12" d="M573.6,826.1c0,1.6-1.3,2.9-2.9,2.9c-1.6,0-2.9-1.3-2.9-2.9c0-1.6,1.3-2.9,2.9-2.9
		C572.3,823.2,573.6,824.5,573.6,826.1z"/>
</g>
<g>
	<path class="st38" d="M754.6,396.2c-5.5,0-10-4.5-10-10c0-72.7,59.2-131.9,131.9-131.9c5.5,0,10,4.5,10,10s-4.5,10-10,10
		c-61.7,0-111.9,50.2-111.9,111.9C764.6,391.7,760.1,396.2,754.6,396.2z"/>
</g>
<g>
	<path class="st38" d="M1051.6,581c-3.9,0-7-3.1-7-7c0-35.5,28.9-64.3,64.3-64.3c3.9,0,7,3.1,7,7s-3.1,7-7,7
		c-27.8,0-50.3,22.6-50.3,50.3C1058.6,577.9,1055.5,581,1051.6,581z"/>
</g>
<g>
	<path class="st39" d="M1527.2,555.3c-5.5,0-10-4.5-10-10c0-72.7,59.2-131.9,131.9-131.9c5.5,0,10,4.5,10,10s-4.5,10-10,10
		c-61.7,0-111.9,50.2-111.9,111.9C1537.2,550.8,1532.7,555.3,1527.2,555.3z"/>
</g>
<g>
	<path class="st39" d="M94.3,581.2c-3.9,0-7-3.1-7-7c0-41.6,33.9-75.5,75.5-75.5c3.9,0,7,3.1,7,7s-3.1,7-7,7
		c-33.9,0-61.5,27.6-61.5,61.5C101.3,578.1,98.1,581.2,94.3,581.2z"/>
</g>
</svg>
